<?xml version="1.0" encoding="UTF-8" standalone="no"?>
<!-- Created with Inkscape (http://www.inkscape.org/) -->

<svg
   xmlns:dc="http://purl.org/dc/elements/1.1/"
   xmlns:cc="http://creativecommons.org/ns#"
   xmlns:rdf="http://www.w3.org/1999/02/22-rdf-syntax-ns#"
   xmlns:svg="http://www.w3.org/2000/svg"
   xmlns="http://www.w3.org/2000/svg"
   xmlns:sodipodi="http://sodipodi.sourceforge.net/DTD/sodipodi-0.dtd"
   xmlns:inkscape="http://www.inkscape.org/namespaces/inkscape"
   width="48.858166mm"
   height="15.683899mm"
   viewBox="0 0 173.11948 55.57287"
   id="svg12169"
   version="1.1"
   inkscape:version="0.91 r13725"
   sodipodi:docname="Eaton.svg">
  <defs
     id="defs12171" />
  <sodipodi:namedview
     id="base"
     pagecolor="#ffffff"
     bordercolor="#666666"
     borderopacity="1.0"
     inkscape:pageopacity="0.0"
     inkscape:pageshadow="2"
     inkscape:zoom="2.8"
     inkscape:cx="119.55273"
     inkscape:cy="40.792397"
     inkscape:document-units="px"
     inkscape:current-layer="layer1"
     showgrid="false"
     fit-margin-top="0"
     fit-margin-left="0"
     fit-margin-right="0"
     fit-margin-bottom="0"
     inkscape:window-width="1920"
     inkscape:window-height="1017"
     inkscape:window-x="-8"
     inkscape:window-y="-8"
     inkscape:window-maximized="1" />
  <metadata
     id="metadata12174">
    <rdf:RDF>
      <cc:Work
         rdf:about="">
        <dc:format>image/svg+xml</dc:format>
        <dc:type
           rdf:resource="http://purl.org/dc/dcmitype/StillImage" />
        <dc:title></dc:title>
      </cc:Work>
    </rdf:RDF>
  </metadata>
  <g
     inkscape:label="Layer 1"
     inkscape:groupmode="layer"
     id="layer1"
     transform="translate(-293.44026,-381.71863)">
    <g
       id="g12233">
      <path
         inkscape:connector-curvature="0"
         id="path12029"
         style="fill:#1478c7;fill-opacity:1;fill-rule:nonzero;stroke:none"
         d="m 334.97401,388.42613 3.10625,11.18375 -6.4375,0 3.33125,-11.18375 z m -5.655,19.01875 -2.83125,9.28 16.54375,0 -2.66375,-9.28 -11.04875,0 z m 43.17,-25.72625 -31.75125,0 0,9.965 10.0175,0 0,25.04125 16.1225,0 c -0.9975,-0.61375 -7.8375,-6.04125 -7.8375,-16.1775 0,-8.425 5.11,-16.6675 13.44875,-18.82875 m 5.5075,26.04125 c 3.74625,0 6.7525,-3.11 6.7525,-7.03875 0,-3.905 -2.81875,-7.44125 -6.6175,-7.44125 -3.8125,0 -6.8125,3.53625 -6.8125,7.44125 0,3.92875 2.8175,7.03875 6.6775,7.03875 m 33.30125,-4.0375 -6.4475,-22.00375 -16.5,0 0,35.00625 10.30625,0 0,-21.9425 0.0725,0 6.38875,21.9425 16.6425,0 0,-35.00625 -10.3975,0 0,22.00375 -0.065,0 z m -97.885,13.0025 2.975,-9.815 -11.04,0 0,-2.96625 11.94625,0 2.835,-9.41 -14.78125,0 0,-2.85 15.60625,0 3.00875,-9.965 -30.5225,0 0,35.00625 19.9725,0 z" />
      <path
         inkscape:connector-curvature="0"
         id="path12033"
         style="fill:#231f20;fill-opacity:1;fill-rule:nonzero;stroke:none"
         d="m 323.62351,425.02162 2.65,0 c 0.8025,0 2.10375,0.105 1.62875,2.34 -0.41125,1.94125 -1.22875,2.825 -2.8875,2.825 l -1.63125,0 -0.95625,4.495 -0.85625,0 2.0525,-9.66 z m -0.0875,4.44125 1.5925,0 c 0.89625,0 1.5625,-0.4275 1.88375,-1.94 0.35,-1.645 -0.33,-1.77875 -1.1075,-1.77875 l -1.5775,0 -0.79125,3.71875 z" />
      <path
         inkscape:connector-curvature="0"
         id="path12037"
         style="fill:#231f20;fill-opacity:1;fill-rule:nonzero;stroke:none"
         d="m 327.76588,432.03112 0.34125,-1.605 c 0.18125,-0.855 0.57375,-2.635 2.88875,-2.635 2.315,0 1.95,1.78 1.7675,2.635 l -0.34125,1.605 c -0.3725,1.75375 -1.19375,2.78375 -2.92,2.78375 -1.725,0 -2.10875,-1.03 -1.73625,-2.78375 m 3.42875,1.245 c 0.205,-0.335 0.49,-1.55125 0.58125,-1.98 0.42375,-1.9925 0.4075,-2.86375 -0.9175,-2.86375 -1.32375,0 -1.70875,0.87125 -2.1325,2.86375 -0.0913,0.42875 -0.32375,1.645 -0.26125,1.98 0.0325,0.16125 0.0638,0.8975 1.175,0.8975 1.11,0 1.45375,-0.73625 1.555,-0.8975" />
      <path
         inkscape:connector-curvature="0"
         id="path12041"
         style="fill:#231f20;fill-opacity:1;fill-rule:nonzero;stroke:none"
         d="m 333.99288,427.92462 0.85625,0 0.255,5.91375 0.0263,0 2.68875,-5.91375 0.99125,0 0.24125,5.91375 0.0263,0 2.76875,-5.91375 0.80375,0 -3.29625,6.7575 -1.00375,0 -0.25625,-5.78125 -0.0275,0 -2.64625,5.78125 -1.00375,0 -0.42375,-6.7575 z" />
      <path
         inkscape:connector-curvature="0"
         id="path12045"
         style="fill:#231f20;fill-opacity:1;fill-rule:nonzero;stroke:none"
         d="m 343.42176,431.46987 -0.11125,0.5225 c -0.19875,0.93625 -0.21,2.18 1.0625,2.18 1.0025,0 1.635,-0.64125 1.815,-1.5525 l 0.8425,0 c -0.44,1.63375 -1.4425,2.195 -2.795,2.195 -1.16375,0 -2.2275,-0.4675 -1.7925,-2.51625 l 0.35125,-1.6575 c 0.41625,-1.95375 1.42375,-2.85125 2.935,-2.85125 2.3275,0 1.9725,1.67375 1.545,3.68 l -3.8525,0 z m 3.1875,-0.6425 c 0.31875,-1.4975 0.2675,-2.395 -1.0175,-2.395 -1.28375,0 -1.715,0.8975 -2.03375,2.395 l 3.05125,0 z" />
      <path
         inkscape:connector-curvature="0"
         id="path12049"
         style="fill:#231f20;fill-opacity:1;fill-rule:nonzero;stroke:none"
         d="m 350.17738,428.834 0.0275,0 c 0.47,-0.64125 1.265,-1.04375 2.08125,-1.04375 l -0.17375,0.81625 c -1.1175,-0.0937 -2.01125,0.58875 -2.25375,1.725 l -0.92375,4.35 -0.8025,0 1.43625,-6.7575 0.8025,0 -0.19375,0.91 z" />
      <path
         inkscape:connector-curvature="0"
         id="path12053"
         style="fill:#231f20;fill-opacity:1;fill-rule:nonzero;stroke:none"
         d="m 351.73526,434.6815 1.43625,-6.7575 0.8025,0 -1.43625,6.7575 -0.8025,0 z m 1.74375,-8.6425 0.21625,-1.0175 0.99,0 -0.21625,1.0175 -0.99,0 z" />
      <path
         inkscape:connector-curvature="0"
         id="path12057"
         style="fill:#231f20;fill-opacity:1;fill-rule:nonzero;stroke:none"
         d="m 355.17063,434.6815 -0.8025,0 1.43625,-6.7575 0.80375,0 -0.1775,0.83 0.0275,0 c 0.5075,-0.56125 1.11375,-0.96375 1.83625,-0.96375 1.67375,0 1.5825,1.245 1.395,2.1275 l -1.0125,4.76375 -0.80375,0 1.005,-4.7225 c 0.1675,-0.79 0.0163,-1.5275 -0.92125,-1.5275 -0.7225,0 -1.56375,0.49625 -1.88375,2.00875 l -0.9025,4.24125 z" />
      <path
         inkscape:connector-curvature="0"
         id="path12061"
         style="fill:#231f20;fill-opacity:1;fill-rule:nonzero;stroke:none"
         d="m 365.50301,427.91025 0.79,0 c -0.1625,0.64375 -0.2475,0.9775 -0.3225,1.32625 l -1.20875,5.685 c -0.315,1.48625 -0.9575,2.37 -2.88375,2.37 -1.68625,0 -1.7675,-1.1925 -1.56875,-1.87375 l 0.8025,0 c -0.21875,0.775 0.26,1.23 1.01,1.23 1.565,0 1.65,-0.8425 2.07875,-2.8625 l -0.0263,0 c -0.47,0.57375 -1.1625,0.81625 -1.805,0.81625 -1.94125,0 -1.71875,-1.6725 -1.4,-3.17125 0.3325,-1.565 0.34875,-1.57875 0.68875,-2.3025 0.1275,-0.28 0.82,-1.3375 2.185,-1.3375 0.6825,0 1.29125,0.3475 1.4575,0.95 l 0.02,0.0263 0.1825,-0.85625 z m -3.67125,3.2375 c -0.29875,1.40625 -0.5975,2.81125 0.86,2.81125 0.67,0 1.1925,-0.44125 1.38,-0.7625 0.3125,-0.52125 0.43125,-0.83 0.8525,-2.81 0.30125,-1.41875 -0.3475,-1.955 -1.0975,-1.955 -1.39125,0 -1.78125,1.71375 -1.995,2.71625" />
      <path
         inkscape:connector-curvature="0"
         id="path12065"
         style="fill:#231f20;fill-opacity:1;fill-rule:nonzero;stroke:none"
         d="m 369.42939,434.6815 2.05375,-9.66 2.68875,0 c 1.5125,0 2.1575,0.615 1.79625,2.315 -0.2475,1.1625 -0.605,1.96625 -1.89375,2.30125 l -0.006,0.0263 c 1.21375,0.26875 1.37,1.11125 1.11125,2.32875 -0.37,1.73875 -1.40125,2.68875 -3.02,2.68875 l -2.73,0 z m 1.01,-0.7225 1.365,0 c 1.4175,0 2.2025,-0.4825 2.50375,-1.9 0.1825,-0.85625 0.175,-2.02125 -1.29625,-2.02125 l -1.73875,0 -0.83375,3.92125 z m 2.6325,-4.6425 c 1.23,0 1.7975,-0.84375 2.03125,-1.94 0.34125,-1.60625 -0.53625,-1.6325 -1.21875,-1.6325 l -1.69875,0 -0.76,3.5725 1.64625,0 z" />
      <path
         inkscape:connector-curvature="0"
         id="path12069"
         style="fill:#231f20;fill-opacity:1;fill-rule:nonzero;stroke:none"
         d="m 381.70426,427.92462 -1.4375,6.7575 -0.695,0 0.16,-0.75125 -0.0263,0 c -0.59125,0.5775 -1.13875,0.88375 -1.8875,0.88375 -1.39125,0 -1.56375,-1.01625 -1.33125,-2.11375 l 1.01625,-4.77625 0.80125,0 -0.985,4.6425 c -0.04,0.18625 -0.3825,1.60625 0.7825,1.60625 1.08375,0 1.68625,-1.0175 1.7875,-1.48625 l 1.0125,-4.7625 0.8025,0 z" />
      <path
         inkscape:connector-curvature="0"
         id="path12073"
         style="fill:#231f20;fill-opacity:1;fill-rule:nonzero;stroke:none"
         d="m 383.62351,434.81425 c -1.45875,0 -1.88375,-0.70875 -1.565,-2.14 l 0.81625,0 c -0.19625,0.92375 -0.1125,1.54 0.9175,1.54 0.775,0 1.24375,-0.44375 1.40375,-1.1925 0.375,-1.76625 -2.76,-1.31125 -2.285,-3.545 0.265,-1.245 1.215,-1.68625 2.3925,-1.68625 1.33875,0 1.57,0.92375 1.35125,1.9525 l -0.78875,0 c 0.14125,-0.855 0.0112,-1.31125 -0.89875,-1.31125 -0.575,0 -1.11,0.37625 -1.23875,0.9775 -0.3575,1.68625 2.77625,1.23125 2.295,3.4925 -0.27,1.27125 -1.1425,1.9125 -2.4,1.9125" />
      <path
         inkscape:connector-curvature="0"
         id="path12077"
         style="fill:#231f20;fill-opacity:1;fill-rule:nonzero;stroke:none"
         d="m 387.11513,434.6815 1.43625,-6.7575 0.8025,0 -1.43625,6.7575 -0.8025,0 z m 1.74375,-8.6425 0.21625,-1.0175 0.99,0 -0.21625,1.0175 -0.99,0 z" />
      <path
         inkscape:connector-curvature="0"
         id="path12081"
         style="fill:#231f20;fill-opacity:1;fill-rule:nonzero;stroke:none"
         d="m 390.56726,434.6815 -0.8025,0 1.435,-6.7575 0.80375,0 -0.17625,0.83 0.0263,0 c 0.5075,-0.56125 1.115,-0.96375 1.8375,-0.96375 1.6725,0 1.5825,1.245 1.395,2.1275 l -1.0125,4.76375 -0.80375,0 1.005,-4.7225 c 0.1675,-0.79 0.015,-1.5275 -0.92125,-1.5275 -0.7225,0 -1.56375,0.49625 -1.885,2.00875 l -0.90125,4.24125 z" />
      <path
         inkscape:connector-curvature="0"
         id="path12085"
         style="fill:#231f20;fill-opacity:1;fill-rule:nonzero;stroke:none"
         d="m 397.16626,431.46987 -0.11125,0.5225 c -0.19875,0.93625 -0.21,2.18 1.0625,2.18 1.0025,0 1.635,-0.64125 1.81375,-1.5525 l 0.84375,0 c -0.44,1.63375 -1.4425,2.195 -2.795,2.195 -1.16375,0 -2.2275,-0.4675 -1.7925,-2.51625 l 0.35125,-1.6575 c 0.41625,-1.95375 1.42375,-2.85125 2.935,-2.85125 2.3275,0 1.9725,1.67375 1.545,3.68 l -3.8525,0 z m 3.1875,-0.6425 c 0.31875,-1.4975 0.26875,-2.395 -1.0175,-2.395 -1.28375,0 -1.715,0.8975 -2.03375,2.395 l 3.05125,0 z" />
      <path
         inkscape:connector-curvature="0"
         id="path12089"
         style="fill:#231f20;fill-opacity:1;fill-rule:nonzero;stroke:none"
         d="m 403.50563,434.81425 c -1.4575,0 -1.8825,-0.70875 -1.565,-2.14 l 0.81625,0 c -0.19625,0.92375 -0.1125,1.54 0.9175,1.54 0.77625,0 1.24375,-0.44375 1.40375,-1.1925 0.375,-1.76625 -2.75875,-1.31125 -2.28375,-3.545 0.265,-1.245 1.215,-1.68625 2.3925,-1.68625 1.3375,0 1.57,0.92375 1.35125,1.9525 l -0.79,0 c 0.1425,-0.855 0.0113,-1.31125 -0.89875,-1.31125 -0.575,0 -1.11,0.37625 -1.23875,0.9775 -0.3575,1.68625 2.77625,1.23125 2.295,3.4925 -0.26875,1.27125 -1.14125,1.9125 -2.4,1.9125" />
      <path
         inkscape:connector-curvature="0"
         id="path12093"
         style="fill:#231f20;fill-opacity:1;fill-rule:nonzero;stroke:none"
         d="m 408.61726,434.81425 c -1.45875,0 -1.88375,-0.70875 -1.56625,-2.14 l 0.81625,0 c -0.19625,0.92375 -0.1125,1.54 0.9175,1.54 0.77625,0 1.245,-0.44375 1.40375,-1.1925 0.375,-1.76625 -2.75875,-1.31125 -2.28375,-3.545 0.265,-1.245 1.215,-1.68625 2.3925,-1.68625 1.3375,0 1.57,0.92375 1.35125,1.9525 l -0.79,0 c 0.1425,-0.855 0.0113,-1.31125 -0.89875,-1.31125 -0.575,0 -1.11,0.37625 -1.2375,0.9775 -0.35875,1.68625 2.775,1.23125 2.295,3.4925 -0.27,1.27125 -1.1425,1.9125 -2.4,1.9125" />
      <path
         inkscape:connector-curvature="0"
         id="path12097"
         style="fill:#231f20;fill-opacity:1;fill-rule:nonzero;stroke:none"
         d="m 420.44176,425.02162 1.15125,0 0.14,8.46875 0.0262,0 3.86125,-8.46875 0.8425,0 -4.4475,9.66 -1.125,0 -0.11375,-8.59 -0.0263,0 -3.82,8.59 -1.07,0 -0.275,-9.66 0.91,0 0.13875,8.53625 0.0262,0 3.78125,-8.53625 z" />
      <path
         inkscape:connector-curvature="0"
         id="path12101"
         style="fill:#231f20;fill-opacity:1;fill-rule:nonzero;stroke:none"
         d="m 425.41339,432.03112 0.3425,-1.605 c 0.18125,-0.855 0.5725,-2.635 2.8875,-2.635 2.315,0 1.95,1.78 1.7675,2.635 l -0.34125,1.605 c -0.3725,1.75375 -1.19375,2.78375 -2.91875,2.78375 -1.72625,0 -2.11,-1.03 -1.7375,-2.78375 m 3.42875,1.245 c 0.205,-0.335 0.49,-1.55125 0.5825,-1.98 0.42375,-1.9925 0.40625,-2.86375 -0.91875,-2.86375 -1.32375,0 -1.70875,0.87125 -2.1325,2.86375 -0.0913,0.42875 -0.32375,1.645 -0.26125,1.98 0.0338,0.16125 0.065,0.8975 1.175,0.8975 1.11,0 1.45375,-0.73625 1.555,-0.8975" />
      <path
         inkscape:connector-curvature="0"
         id="path12105"
         style="fill:#231f20;fill-opacity:1;fill-rule:nonzero;stroke:none"
         d="m 433.20638,428.834 0.0263,0 c 0.47125,-0.64125 1.265,-1.04375 2.0825,-1.04375 l -0.17375,0.81625 c -1.1175,-0.0937 -2.0125,0.58875 -2.255,1.725 l -0.92375,4.35 -0.8025,0 1.43625,-6.7575 0.8025,0 -0.1925,0.91 z" />
      <path
         inkscape:connector-curvature="0"
         id="path12109"
         style="fill:#231f20;fill-opacity:1;fill-rule:nonzero;stroke:none"
         d="m 434.83139,434.6815 2.05375,-9.66 0.8025,0 -2.05375,9.66 -0.8025,0 z" />
      <path
         inkscape:connector-curvature="0"
         id="path12113"
         style="fill:#231f20;fill-opacity:1;fill-rule:nonzero;stroke:none"
         d="m 441.24976,433.826 -0.03,0.0112 c -0.55125,0.64375 -1.13125,0.9775 -1.92,0.9775 -1.95375,0 -1.64875,-1.93875 -1.3125,-3.51875 0.27625,-1.2975 0.745,-3.505 2.81875,-3.505 0.615,0 1.1575,0.28125 1.4625,0.8025 l 0.0238,0.0125 0.76125,-3.58375 0.80375,0 -1.77,8.32 c -0.1425,0.67 -0.195,1.11125 -0.20375,1.33875 l -0.77625,0 0.1425,-0.855 z m 0.36625,-1.915 0.25625,-1.20375 c 0.085,-0.40125 0.4825,-2.275 -1.03,-2.275 -1.44375,0 -1.7225,1.31125 -2.05875,2.89 -0.53375,2.515 -0.004,2.85125 0.86625,2.85125 0.76375,0 1.61625,-0.61625 1.96625,-2.2625" />
      <path
         inkscape:connector-curvature="0"
         id="path12117"
         style="fill:#231f20;fill-opacity:1;fill-rule:nonzero;stroke:none"
         d="m 444.20276,427.92462 0.85625,0 0.255,5.91375 0.0263,0 2.68875,-5.91375 0.99125,0 0.24125,5.91375 0.0263,0 2.76875,-5.91375 0.80375,0 -3.2975,6.7575 -1.0025,0 -0.25625,-5.78125 -0.0275,0 -2.64625,5.78125 -1.00375,0 -0.42375,-6.7575 z" />
      <path
         inkscape:connector-curvature="0"
         id="path12121"
         style="fill:#231f20;fill-opacity:1;fill-rule:nonzero;stroke:none"
         d="m 452.42564,434.6815 1.43625,-6.7575 0.8025,0 -1.4375,6.7575 -0.80125,0 z m 1.74375,-8.6425 0.215,-1.0175 0.99125,0 -0.2175,1.0175 -0.98875,0 z" />
      <path
         inkscape:connector-curvature="0"
         id="path12125"
         style="fill:#231f20;fill-opacity:1;fill-rule:nonzero;stroke:none"
         d="m 458.80213,433.826 -0.03,0.0112 c -0.55125,0.64375 -1.13125,0.9775 -1.92,0.9775 -1.95375,0 -1.64875,-1.93875 -1.3125,-3.51875 0.27625,-1.2975 0.745,-3.505 2.81875,-3.505 0.61625,0 1.1575,0.28125 1.4625,0.8025 l 0.0238,0.0125 0.76125,-3.58375 0.80375,0 -1.77,8.32 c -0.14125,0.67 -0.195,1.11125 -0.20375,1.33875 l -0.77625,0 0.1425,-0.855 z m 0.36625,-1.915 0.25625,-1.20375 c 0.085,-0.40125 0.4825,-2.275 -1.03,-2.275 -1.44375,0 -1.7225,1.31125 -2.05875,2.89 -0.53375,2.515 -0.004,2.85125 0.86625,2.85125 0.76375,0 1.61625,-0.61625 1.96625,-2.2625" />
      <path
         inkscape:connector-curvature="0"
         id="path12129"
         style="fill:#231f20;fill-opacity:1;fill-rule:nonzero;stroke:none"
         d="m 462.39413,431.46987 -0.11,0.5225 c -0.2,0.93625 -0.21,2.18 1.06125,2.18 1.00375,0 1.635,-0.64125 1.815,-1.5525 l 0.8425,0 c -0.44,1.63375 -1.4425,2.195 -2.79375,2.195 -1.16375,0 -2.22875,-0.4675 -1.79375,-2.51625 l 0.3525,-1.6575 c 0.415,-1.95375 1.4225,-2.85125 2.935,-2.85125 2.32625,0 1.97125,1.67375 1.545,3.68 l -3.85375,0 z m 3.1875,-0.6425 c 0.31875,-1.4975 0.2675,-2.395 -1.01625,-2.395 -1.285,0 -1.715,0.8975 -2.035,2.395 l 3.05125,0 z" />
    </g>
  </g>
</svg>
