<?xml version="1.0" encoding="UTF-8" standalone="no"?>
<!-- Created with Inkscape (http://www.inkscape.org/) -->

<svg
   xmlns:dc="http://purl.org/dc/elements/1.1/"
   xmlns:cc="http://creativecommons.org/ns#"
   xmlns:rdf="http://www.w3.org/1999/02/22-rdf-syntax-ns#"
   xmlns:svg="http://www.w3.org/2000/svg"
   xmlns="http://www.w3.org/2000/svg"
   xmlns:sodipodi="http://sodipodi.sourceforge.net/DTD/sodipodi-0.dtd"
   xmlns:inkscape="http://www.inkscape.org/namespaces/inkscape"
   width="47.534737mm"
   height="13.434166mm"
   viewBox="0 0 168.43017 47.601375"
   id="svg9831"
   version="1.1"
   inkscape:version="0.91 r13725"
   sodipodi:docname="Explorys.svg">
  <defs
     id="defs9833">
    <clipPath
       clipPathUnits="userSpaceOnUse"
       id="clipPath7355">
      <path
         d="m 27,54.00002 135.1,0 0,-40.90001 -135.1,0 0,40.90001 z"
         id="path7357"
         inkscape:connector-curvature="0" />
    </clipPath>
    <clipPath
       clipPathUnits="userSpaceOnUse"
       id="clipPath7361">
      <path
         d="m 27,13.10002 135.1,0 0,40.9 -135.1,0 0,-40.9 z"
         id="path7363"
         inkscape:connector-curvature="0" />
    </clipPath>
    <clipPath
       clipPathUnits="userSpaceOnUse"
       id="clipPath7331">
      <path
         d="m 27,54.00002 135.1,0 0,-40.90001 -135.1,0 0,40.90001 z"
         id="path7333"
         inkscape:connector-curvature="0" />
    </clipPath>
    <clipPath
       clipPathUnits="userSpaceOnUse"
       id="clipPath7337">
      <path
         d="m 27.02316,53.82638 134.74414,0 0,-40.72636 -134.74414,0 0,40.72636 z"
         id="path7339"
         inkscape:connector-curvature="0" />
    </clipPath>
    <clipPath
       clipPathUnits="userSpaceOnUse"
       id="clipPath7343">
      <path
         d="m 27,13.10002 135.1,0 0,40.9 -135.1,0 0,-40.9 z"
         id="path7345"
         inkscape:connector-curvature="0" />
    </clipPath>
    <clipPath
       clipPathUnits="userSpaceOnUse"
       id="clipPath7355-3">
      <path
         d="m 27,54.00002 135.1,0 0,-40.90001 -135.1,0 0,40.90001 z"
         id="path7357-9"
         inkscape:connector-curvature="0" />
    </clipPath>
    <clipPath
       clipPathUnits="userSpaceOnUse"
       id="clipPath7361-9">
      <path
         d="m 27,13.10002 135.1,0 0,40.9 -135.1,0 0,-40.9 z"
         id="path7363-9"
         inkscape:connector-curvature="0" />
    </clipPath>
    <clipPath
       clipPathUnits="userSpaceOnUse"
       id="clipPath7313">
      <path
         d="m 27,54.00002 135.1,0 0,-40.90001 -135.1,0 0,40.90001 z"
         id="path7315"
         inkscape:connector-curvature="0" />
    </clipPath>
    <clipPath
       clipPathUnits="userSpaceOnUse"
       id="clipPath7319">
      <path
         d="m 27,13.10002 135.1,0 0,40.9 -135.1,0 0,-40.9 z"
         id="path7321"
         inkscape:connector-curvature="0" />
    </clipPath>
  </defs>
  <sodipodi:namedview
     id="base"
     pagecolor="#ffffff"
     bordercolor="#666666"
     borderopacity="1.0"
     inkscape:pageopacity="0.0"
     inkscape:pageshadow="2"
     inkscape:zoom="3.959798"
     inkscape:cx="135.01608"
     inkscape:cy="41.921073"
     inkscape:document-units="px"
     inkscape:current-layer="layer1"
     showgrid="false"
     fit-margin-top="0"
     fit-margin-left="0"
     fit-margin-right="0"
     fit-margin-bottom="0"
     inkscape:window-width="1920"
     inkscape:window-height="1017"
     inkscape:window-x="-8"
     inkscape:window-y="-8"
     inkscape:window-maximized="1" />
  <metadata
     id="metadata9836">
    <rdf:RDF>
      <cc:Work
         rdf:about="">
        <dc:format>image/svg+xml</dc:format>
        <dc:type
           rdf:resource="http://purl.org/dc/dcmitype/StillImage" />
        <dc:title></dc:title>
      </cc:Work>
    </rdf:RDF>
  </metadata>
  <g
     inkscape:label="Layer 1"
     inkscape:groupmode="layer"
     id="layer1"
     transform="translate(-291.09284,-508.52292)">
    <g
       id="g10128">
      <g
         id="g7309"
         transform="matrix(1.25,0,0,-1.25,257.31389,575.8059)">
        <g
           clip-path="url(#clipPath7313)"
           id="g7311">
          <g
             clip-path="url(#clipPath7319)"
             id="g7317">
            <path
               inkscape:connector-curvature="0"
               id="path7323"
               style="fill:#fbd395;fill-opacity:1;fill-rule:nonzero;stroke:none"
               d="m 41.76952,53.70021 c 0,0 2.41443,-0.26199 4.97863,-1.75059 3.79438,-2.20243 8.05813,-7.69962 5.83438,-15.28503 0,0 -1.30197,4.64755 -6.93062,7.71582 0,0 0.28988,4.85398 -3.88239,9.3198" />
            <path
               inkscape:connector-curvature="0"
               id="path7325"
               style="fill:#f5970f;fill-opacity:1;fill-rule:nonzero;stroke:none"
               d="m 40.10084,33.68699 c -2.13381,-1.50519 -4.73622,-2.39226 -7.5463,-2.39226 -0.5624,0 -1.11554,0.03897 -1.65864,0.10765 2.36772,-2.33902 5.62093,-3.78441 9.21343,-3.78441 3.59328,0 6.84841,1.44616 9.21614,3.78711 -0.55005,-0.07022 -1.10898,-0.11035 -1.67833,-0.11035 -2.81008,0 -5.41211,0.88707 -7.5463,2.39226" />
          </g>
        </g>
      </g>
      <g
         id="g7327"
         transform="matrix(1.25,0,0,-1.25,257.31389,575.8059)">
        <g
           clip-path="url(#clipPath7331)"
           id="g7329">
          <g
             clip-path="url(#clipPath7337)"
             id="g7335">
            <g
               clip-path="url(#clipPath7343)"
               id="g7341">
              <path
                 inkscape:connector-curvature="0"
                 id="path7347"
                 style="fill:#fac066;fill-opacity:1;fill-rule:nonzero;stroke:none"
                 d="m 45.66503,44.38388 c 7.7e-4,-0.0093 0.04825,-0.965 -0.22118,-2.37451 -0.0089,-0.04746 -0.01891,-0.09453 -0.02817,-0.14161 C 45.38286,41.70494 45.34697,41.53825 45.30489,41.365 45.14431,40.68861 44.93047,40.03382 44.66954,39.40296 44.64869,39.35203 44.62669,39.3011 44.60507,39.24978 44.53984,39.09814 44.47383,38.94727 44.40281,38.79834 44.33294,38.6494 44.25922,38.49969 44.18124,38.34959 44.15422,38.2975 44.12682,38.2458 44.09903,38.1941 43.5621,37.18896 42.84105,36.16106 41.87605,35.19065 l -0.0413,-0.0409 c -0.14282,-0.14277 -0.29143,-0.28399 -0.44544,-0.42328 -0.05134,-0.04707 -0.10268,-0.09376 -0.15479,-0.13968 -0.11232,-0.09916 -0.2289,-0.19678 -0.3474,-0.29402 -0.07604,-0.06289 -0.15131,-0.12694 -0.22928,-0.18829 -0.11928,-0.09376 -0.24473,-0.18521 -0.3694,-0.27704 -0.06292,-0.04592 -0.12391,-0.09569 -0.1876,-0.14045 2.13419,-1.50519 4.73622,-2.39226 7.5463,-2.39226 0.56935,0 1.12828,0.04013 1.67833,0.11035 1.47297,1.45658 2.60164,3.26004 3.25552,5.27687 -1.15337,3.41631 -3.67549,6.2006 -6.91596,7.70193" />
              <path
                 inkscape:connector-curvature="0"
                 id="path7349"
                 style="fill:#feedd3;fill-opacity:1;fill-rule:nonzero;stroke:none"
                 d="m 34.52237,44.32292 -3.9e-4,0.01698 0.01776,0.0089 -0.0016,0.04978 c 0,3.64511 1.49035,6.94219 3.8932,9.31671 C 31.98403,52.89109 27,47.39003 27,40.72141 c 0,-1.46546 0.24472,-2.87342 0.68862,-4.18994 1.114,3.43792 3.6091,6.25346 6.83375,7.79145" />
            </g>
          </g>
        </g>
      </g>
      <g
         id="g7351"
         transform="matrix(1.25,0,0,-1.25,257.31389,575.8059)">
        <g
           clip-path="url(#clipPath7355-3)"
           id="g7353">
          <g
             clip-path="url(#clipPath7361-9)"
             id="g7359">
            <path
               inkscape:connector-curvature="0"
               id="path7365"
               style="fill:#f8ad3f;fill-opacity:1;fill-rule:nonzero;stroke:none"
               d="m 40.10084,33.68699 -7.7e-4,3.9e-4 -0.007,-0.005 c 0,0 -5.4565,3.32718 -5.57075,10.64056 -3.22465,-1.53799 -5.71975,-4.35353 -6.83375,-7.79145 0.66122,-1.95703 1.76904,-3.7084 3.20728,-5.12909 0.5431,-0.06868 1.09624,-0.10765 1.65864,-0.10765 2.81008,0 5.41249,0.88707 7.5463,2.39226" />
            <path
               inkscape:connector-curvature="0"
               id="path7367"
               style="fill:#fce1b7;fill-opacity:1;fill-rule:nonzero;stroke:none"
               d="m 34.53974,44.34877 c 0.18065,0.0899 2.63676,1.28295 5.61398,1.28295 3.07797,0 5.48545,-1.23317 5.50938,-1.24552 l 3.9e-4,0.01235 c 0,3.64666 -1.49074,6.94412 -3.89552,9.31941 -0.54387,0.06829 -1.09624,0.10842 -1.65864,0.10842 -0.56896,0 -1.12789,-0.04051 -1.67794,-0.11112 -2.40285,-2.37452 -3.8932,-5.6716 -3.8932,-9.31671 l 0.0016,-0.04978" />
            <path
               inkscape:connector-curvature="0"
               id="path7369"
               style="fill:#f5970f;fill-opacity:1;fill-rule:nonzero;stroke:none"
               d="M 44.18124,38.34959 C 44.15461,38.2975 44.12682,38.2458 44.09903,38.1941 c 0.02779,0.0517 0.05519,0.1034 0.08221,0.15549" />
            <path
               inkscape:connector-curvature="0"
               id="path7371"
               style="fill:#f5970f;fill-opacity:1;fill-rule:nonzero;stroke:none"
               d="m 44.09903,38.1941 c 0.007,0.01311 0.01428,0.02623 0.02123,0.03935 -0.007,-0.01312 -0.0139,-0.02624 -0.02123,-0.03935" />
            <path
               inkscape:connector-curvature="0"
               id="path7373"
               style="fill:#f5970f;fill-opacity:1;fill-rule:nonzero;stroke:none"
               d="m 44.12026,38.23345 c 0.02046,0.03859 0.04091,0.07717 0.06098,0.11614 -0.02007,-0.03897 -0.04052,-0.07755 -0.06098,-0.11614" />
            <path
               inkscape:connector-curvature="0"
               id="path7375"
               style="fill:#f5970f;fill-opacity:1;fill-rule:nonzero;stroke:none"
               d="m 41.38931,34.72647 c -0.05134,-0.04707 -0.10191,-0.09376 -0.15479,-0.13968 0.05211,0.04592 0.10345,0.09261 0.15479,0.13968" />
            <path
               inkscape:connector-curvature="0"
               id="path7377"
               style="fill:#f5970f;fill-opacity:1;fill-rule:nonzero;stroke:none"
               d="m 41.23452,34.58679 c 0.03204,0.02817 0.06369,0.05672 0.09534,0.08528 -0.03126,-0.02856 -0.06292,-0.05711 -0.09534,-0.08528" />
            <path
               inkscape:connector-curvature="0"
               id="path7379"
               style="fill:#f5970f;fill-opacity:1;fill-rule:nonzero;stroke:none"
               d="m 41.32986,34.67207 c 0.01969,0.01813 0.03976,0.03627 0.05945,0.0544 -0.01969,-0.01813 -0.03976,-0.03627 -0.05945,-0.0544" />
            <path
               inkscape:connector-curvature="0"
               id="path7381"
               style="fill:#f5970f;fill-opacity:1;fill-rule:nonzero;stroke:none"
               d="m 45.44385,42.00937 c -0.0089,-0.04669 -0.01853,-0.09415 -0.02817,-0.14161 0.0093,0.04708 0.01929,0.09415 0.02817,0.14161" />
            <path
               inkscape:connector-curvature="0"
               id="path7383"
               style="fill:#f5970f;fill-opacity:1;fill-rule:nonzero;stroke:none"
               d="m 45.41568,41.86776 c 0.0046,0.02277 0.0093,0.04515 0.01389,0.06791 -0.0046,-0.02276 -0.0093,-0.04514 -0.01389,-0.06791" />
            <path
               inkscape:connector-curvature="0"
               id="path7385"
               style="fill:#f5970f;fill-opacity:1;fill-rule:nonzero;stroke:none"
               d="m 45.42957,41.93567 c 0.0046,0.0247 0.0097,0.04939 0.01428,0.0737 -0.0046,-0.02469 -0.0097,-0.049 -0.01428,-0.0737" />
            <path
               inkscape:connector-curvature="0"
               id="path7387"
               style="fill:#f5970f;fill-opacity:1;fill-rule:nonzero;stroke:none"
               d="m 41.87605,35.19065 -0.0413,-0.0409 0.0413,0.0409" />
            <path
               inkscape:connector-curvature="0"
               id="path7389"
               style="fill:#f5970f;fill-opacity:1;fill-rule:nonzero;stroke:none"
               d="m 41.83475,35.14975 0.0413,0.0409 -0.0413,-0.0409" />
            <path
               inkscape:connector-curvature="0"
               id="path7391"
               style="fill:#f7aa38;fill-opacity:1;fill-rule:nonzero;stroke:none"
               d="m 41.83475,35.14975 0.0413,0.0409 -0.0413,-0.0409" />
            <path
               inkscape:connector-curvature="0"
               id="path7393"
               style="fill:#f5970f;fill-opacity:1;fill-rule:nonzero;stroke:none"
               d="m 40.10084,33.68699 c 0.06369,0.04476 0.12468,0.09453 0.1876,0.14045 -0.06331,-0.0463 -0.12352,-0.09414 -0.18837,-0.14006 l 7.7e-4,-3.9e-4" />
            <path
               inkscape:connector-curvature="0"
               id="path7395"
               style="fill:#f5970f;fill-opacity:1;fill-rule:nonzero;stroke:none"
               d="m 40.10084,33.68699 0,0 -7.7e-4,3.9e-4 c 0.0606,0.04321 0.11734,0.08759 0.1764,0.13119 -0.05867,-0.04322 -0.1158,-0.08952 -0.17563,-0.13158" />
            <path
               inkscape:connector-curvature="0"
               id="path7397"
               style="fill:#f5970f;fill-opacity:1;fill-rule:nonzero;stroke:none"
               d="m 40.27647,33.81857 c 0.0039,0.0031 0.0081,0.0062 0.01197,0.0089 -0.0039,-0.0027 -0.0081,-0.0058 -0.01197,-0.0089" />
            <path
               inkscape:connector-curvature="0"
               id="path7399"
               style="fill:#f5970f;fill-opacity:1;fill-rule:nonzero;stroke:none"
               d="m 40.88712,34.29277 c -0.07642,-0.06289 -0.15054,-0.12617 -0.22928,-0.18829 0.07797,0.06135 0.15324,0.1254 0.22928,0.18829" />
            <path
               inkscape:connector-curvature="0"
               id="path7401"
               style="fill:#f5970f;fill-opacity:1;fill-rule:nonzero;stroke:none"
               d="m 40.65784,34.10448 c 0.02741,0.02161 0.05443,0.0436 0.08144,0.06559 -0.02701,-0.02199 -0.05403,-0.04398 -0.08144,-0.06559" />
            <path
               inkscape:connector-curvature="0"
               id="path7403"
               style="fill:#f5970f;fill-opacity:1;fill-rule:nonzero;stroke:none"
               d="m 40.73928,34.17007 c 0.0498,0.04091 0.09844,0.08181 0.14784,0.1227 -0.0494,-0.04089 -0.09843,-0.08218 -0.14784,-0.1227" />
            <path
               inkscape:connector-curvature="0"
               id="path7405"
               style="fill:#f5970f;fill-opacity:1;fill-rule:nonzero;stroke:none"
               d="m 45.30489,41.365 c -0.14629,-0.60462 -0.35087,-1.26867 -0.63535,-1.96204 0.26093,0.63086 0.47477,1.28565 0.63535,1.96204" />
            <path
               inkscape:connector-curvature="0"
               id="path7407"
               style="fill:#f5970f;fill-opacity:1;fill-rule:nonzero;stroke:none"
               d="m 44.66954,39.40296 c 0.28448,0.69337 0.48906,1.35742 0.63535,1.96204 -0.16058,-0.67639 -0.37442,-1.33118 -0.63535,-1.96204" />
            <path
               inkscape:connector-curvature="0"
               id="path7409"
               style="fill:#f5970f;fill-opacity:1;fill-rule:nonzero;stroke:none"
               d="m 44.60507,39.24978 c -0.0633,-0.14933 -0.13085,-0.29981 -0.20226,-0.45144 0.07102,0.14893 0.13703,0.2998 0.20226,0.45144" />
            <path
               inkscape:connector-curvature="0"
               id="path7411"
               style="fill:#f5970f;fill-opacity:1;fill-rule:nonzero;stroke:none"
               d="m 44.40281,38.79834 c 0.0359,0.07639 0.07102,0.15202 0.10461,0.22803 -0.03397,-0.0764 -0.06871,-0.15241 -0.10461,-0.22803 m 0.10461,0.22803 c 0.03319,0.07408 0.06562,0.14855 0.09765,0.22341 -0.03165,-0.07447 -0.06407,-0.14894 -0.09765,-0.22341" />
            <path
               inkscape:connector-curvature="0"
               id="path7413"
               style="fill:#6a6567;fill-opacity:1;fill-rule:nonzero;stroke:none"
               d="m 70.38409,42.40795 c -0.24743,0.82803 -0.73456,1.50134 -1.46141,2.01992 -0.72644,0.5182 -1.57024,0.77749 -2.52983,0.77749 -1.04259,0 -1.95741,-0.29132 -2.7437,-0.87318 -0.49369,-0.36424 -0.95071,-1.00552 -1.37107,-1.92423 l 8.10601,0 z m 3.74921,-2.91779 -12.02429,0 c 0.17255,-1.07613 0.63575,-1.93233 1.38729,-2.56782 0.75154,-0.6355 1.70959,-0.95305 2.87608,-0.95305 1.39386,0 2.592,0.4962 3.59444,1.48899 l 3.1432,-1.49169 c -0.78551,-1.1236 -1.72658,-1.95471 -2.82167,-2.49336 -1.09623,-0.53864 -2.39744,-0.80797 -3.90477,-0.80797 -2.33761,0 -4.24214,0.74083 -5.71241,2.22327 -1.46989,1.48204 -2.20483,3.33798 -2.20483,5.56818 0,2.285 0.73416,4.18184 2.20367,5.69166 1.46911,1.50944 3.31111,2.26455 5.52674,2.26455 2.35228,0 4.26569,-0.75163 5.73944,-2.2549 1.47413,-1.50288 2.211,-3.48808 2.211,-5.95558 L 74.1333,39.49016" />
            <path
               inkscape:connector-curvature="0"
               id="path7415"
               style="fill:#6a6567;fill-opacity:1;fill-rule:nonzero;stroke:none"
               d="m 73.60526,48.02707 4.36025,0 2.95868,-4.08151 2.94365,4.08151 4.27649,0 -5.07628,-7.03904 5.75293,-7.93692 -4.36064,0 -3.56702,4.92151 -3.54927,-4.92151 -4.27649,0 5.68191,7.87866 -5.14421,7.0973" />
            <path
               inkscape:connector-curvature="0"
               id="path7417"
               style="fill:#6a6567;fill-opacity:1;fill-rule:nonzero;stroke:none"
               d="m 97.29601,44.9642 c -1.17885,0 -2.15698,-0.40475 -2.93322,-1.21311 -0.77663,-0.80874 -1.16456,-1.86558 -1.16456,-3.17052 0,-1.33272 0.38793,-2.4104 1.16456,-3.23303 0.77624,-0.82263 1.75437,-1.23356 2.93322,-1.23356 1.1414,0 2.1033,0.41788 2.88459,1.2544 0.7809,0.83652 1.1715,1.90223 1.1715,3.1983 0,1.28642 -0.3837,2.34095 -1.1511,3.16358 -0.76771,0.82263 -1.73542,1.23394 -2.90499,1.23394 z m -3.9291,3.06287 0,-1.64063 c 0.67627,0.67524 1.40736,1.18186 2.19364,1.51947 0.78628,0.33762 1.62776,0.50701 2.52328,0.50701 1.94737,0 3.60217,-0.7389 4.96477,-2.21632 1.3622,-1.47741 2.0431,-3.3727 2.0431,-5.68509 0,-2.22983 -0.7045,-4.09502 -2.1118,-5.59559 -1.4086,-1.50018 -3.07685,-2.25066 -5.00531,-2.25066 -0.85923,0 -1.65941,0.15434 -2.39976,0.46225 -0.74112,0.30791 -1.47684,0.81144 -2.20792,1.5106 l 0,-7.06065 -3.76311,0 0,20.44961 3.76311,0" />
            <path
               inkscape:connector-curvature="0"
               id="path7419"
               style="fill:#6a6567;fill-opacity:1;fill-rule:nonzero;stroke:none"
               d="m 106.1045,53.7905 3.7635,0 0,-20.73938 -3.7635,0 0,20.73938 z" />
            <path
               inkscape:connector-curvature="0"
               id="path7421"
               style="fill:#6a6567;fill-opacity:1;fill-rule:nonzero;stroke:none"
               d="m 118.6534,44.86774 c -1.1677,0 -2.1404,-0.40552 -2.917,-1.21697 -0.777,-0.81182 -1.1654,-1.84976 -1.1654,-3.11496 0,-1.30224 0.3837,-2.35676 1.1519,-3.16357 0.7673,-0.80681 1.7397,-1.21003 2.9166,-1.21003 1.1769,0 2.1558,0.40746 2.9378,1.22392 0.7813,0.81607 1.1723,1.86596 1.1723,3.14968 0,1.28334 -0.3841,2.32628 -1.1518,3.12847 -0.7678,0.80218 -1.7494,1.20346 -2.9444,1.20346 z m -0.0467,3.54518 c 1.4151,0 2.7456,-0.35344 3.9908,-1.05993 1.2457,-0.70687 2.2172,-1.66609 2.9159,-2.87689 0.6983,-1.21156 1.048,-2.51921 1.048,-3.92292 0,-1.41376 -0.3517,-2.7349 -1.055,-3.96499 -0.7029,-1.2297 -1.6609,-2.19124 -2.8741,-2.88345 -1.2132,-0.6926 -2.5503,-1.03948 -4.0117,-1.03948 -2.1508,0 -3.9866,0.76398 -5.5075,2.29195 -1.5212,1.52796 -2.2812,3.38389 -2.2812,5.5678 0,2.34017 0.8588,4.29064 2.5777,5.85063 1.5073,1.3578 3.2397,2.03728 5.1971,2.03728" />
            <path
               inkscape:connector-curvature="0"
               id="path7423"
               style="fill:#6a6567;fill-opacity:1;fill-rule:nonzero;stroke:none"
               d="m 127.5974,48.02707 3.2571,0 0,-1.88332 c 0.3474,0.74237 0.809,1.30648 1.3853,1.69155 0.5759,0.38508 1.207,0.57762 1.893,0.57762 0.4844,0 0.9916,-0.1281 1.5223,-0.38431 l -1.1661,-3.22608 c -0.4392,0.22032 -0.8001,0.33067 -1.0838,0.33067 -0.5764,0 -1.0635,-0.35845 -1.4615,-1.07459 -0.3979,-0.7169 -0.5967,-2.12217 -0.5967,-4.2154 l 0.0139,-0.73041 0,-6.06169 -3.7635,0 0,14.97596" />
            <path
               inkscape:connector-curvature="0"
               id="path7425"
               style="fill:#6a6567;fill-opacity:1;fill-rule:nonzero;stroke:none"
               d="m 135.9689,48.02707 3.8593,0 3.9059,-9.4016 4.3112,9.4016 3.8558,0 -9.4099,-20.44961 -3.8812,0 3.0799,6.61654 -5.721,13.83307" />
            <path
               inkscape:connector-curvature="0"
               id="path7427"
               style="fill:#6a6567;fill-opacity:1;fill-rule:nonzero;stroke:none"
               d="m 161.5017,45.9377 -2.3256,-2.32397 c -0.9454,0.93221 -1.8034,1.3987 -2.5739,1.3987 -0.4223,0 -0.7523,-0.08951 -0.9912,-0.26855 -0.2386,-0.17903 -0.3575,-0.40128 -0.3575,-0.66751 0,-0.2018 0.0753,-0.38779 0.2266,-0.55756 0.1509,-0.16939 0.5246,-0.40128 1.1202,-0.69491 l 1.3741,-0.68836 c 1.4475,-0.71575 2.4415,-1.44538 2.9819,-2.18853 0.5408,-0.74315 0.811,-1.61517 0.811,-2.61529 0,-1.33079 -0.4883,-2.44126 -1.4645,-3.33142 -0.9766,-0.88977 -2.2851,-1.33504 -3.9256,-1.33504 -2.1821,0 -3.9234,0.8508 -5.2249,2.55278 l 2.3055,2.51149 c 0.4393,-0.51163 0.9539,-0.92449 1.544,-1.23973 0.5906,-0.31485 1.1144,-0.47228 1.5722,-0.47228 0.4937,0 0.8917,0.11884 1.1935,0.35807 0.3023,0.23884 0.4532,0.51395 0.4532,0.8261 0,0.57839 -0.5439,1.14327 -1.6316,1.69426 l -1.2619,0.63357 c -2.4136,1.22082 -3.6202,2.74956 -3.6202,4.5862 0,1.18417 0.4562,2.19625 1.3687,3.03663 0.9121,0.84038 2.0794,1.26057 3.501,1.26057 0.972,0 1.8868,-0.21337 2.7445,-0.63935 0.8573,-0.42675 1.5841,-1.03871 2.1805,-1.83587" />
            <g
               transform="matrix(0.386,0,0,0.385849,27,13.10002)"
               id="g7429">
              <text
                 id="text7431"
                 style="font-variant:normal;font-weight:normal;font-size:24.5px;font-family:HelveticaNeue;-inkscape-font-specification:HelveticaNeue;writing-mode:lr-tb;fill:#6a6567;fill-opacity:1;fill-rule:nonzero;stroke:none"
                 transform="matrix(1,0,0,-1,82.71339,11.7844)">
                <tspan
                   id="tspan7433"
                   sodipodi:role="line"
                   y="0"
                   x="0 15.386 28.518 34.839001 40.6945 56.987 77.836502 84.157501 101.3565 114.9295 135.338 149.3765 162.043 175.175">An IBM Company</tspan>
              </text>
            </g>
          </g>
        </g>
      </g>
    </g>
  </g>
</svg>
