<?xml version="1.0" encoding="utf-8"?>
<!-- Generator: Adobe Illustrator 18.0.0, SVG Export Plug-In . SVG Version: 6.00 Build 0)  -->
<!DOCTYPE svg PUBLIC "-//W3C//DTD SVG 1.1//EN" "http://www.w3.org/Graphics/SVG/1.1/DTD/svg11.dtd">
<svg version="1.1" id="Layer_1" xmlns="http://www.w3.org/2000/svg" xmlns:xlink="http://www.w3.org/1999/xlink" x="0px" y="0px"
	 viewBox="0 0 1000 200" enable-background="new 0 0 1000 200" xml:space="preserve">
<g id="XMLID_2_">
	<g>
		<polygon fill="#EFEEEB" points="733.3,77.8 842.6,29.4 907.4,68 882.6,79.6 847,57.9 820,71.3 857.7,94.2 828.7,107.4 791.1,84 
			763.9,97 763.9,97 733.5,78.3 		"/>
		<polygon fill="#EFEEEB" points="733.5,78.3 763.9,97 763.9,126.7 763.8,126.9 733,107.3 733,78 733.3,77.8 		"/>
		<polygon fill="#BCC7DB" points="827.4,136.1 827.3,136.1 763.9,97 763.9,97 791.1,84 828.7,107.4 857.7,94.2 820,71.3 847,57.9 
			882.6,79.6 907.4,68 907.5,68 933.6,83.6 933.6,84 		"/>
		<polygon fill="#BCC7DB" points="827.4,136.1 827.4,167.3 827.4,167.4 763.8,126.9 763.9,126.7 763.9,97 827.3,136.1 		"/>
		<polygon fill="#BCC7DB" points="827.4,167.3 827.4,136.1 933.6,84 933.6,114.6 827.6,167.5 827.4,167.4 		"/>
	</g>
	<g>
		<polyline fill="none" stroke="#405675" stroke-width="2" points="733.5,78.3 763.9,97 827.3,136.1 827.4,136.1 933.6,84 
			933.9,83.8 		"/>
		<polyline fill="none" stroke="#405675" stroke-width="2" points="907.4,68 842.6,29.4 733.3,77.8 733,78 733,107.3 763.8,126.9 
			827.4,167.4 827.6,167.5 933.6,114.6 933.6,84 933.6,83.6 907.5,68 		"/>
		<polyline fill="none" stroke="#405675" stroke-width="2" points="827.4,135.6 827.4,136.1 827.4,167.3 		"/>
		<polyline fill="none" stroke="#405675" stroke-width="2" points="763.9,126.7 763.9,97 763.9,97 791.1,84 828.7,107.4 857.7,94.2 
			820,71.3 847,57.9 882.6,79.6 907.4,68 907.5,68 		"/>
	</g>
</g>
<text transform="matrix(0.9649 0 0 1 53.2285 138.1982)"><tspan x="0" y="0" fill="#405675" font-family="'ArialMT'" font-size="142">F</tspan><tspan x="86.7" y="0" fill="#405675" font-family="'ArialMT'" font-size="125">ORM</tspan><tspan x="378.4" y="0" fill="#405675" font-family="'ArialMT'" font-size="142">F</tspan><tspan x="465.1" y="0" fill="#405675" font-family="'ArialMT'" font-size="125">IRE</tspan></text>
<text transform="matrix(1 0 0 1 934.0684 52.0933)" fill="#405675" font-family="'ArialMT'" font-size="20">TM</text>
</svg>
