<?xml version="1.0" encoding="utf-8"?>
<!-- Generator: Adobe Illustrator 18.0.0, SVG Export Plug-In . SVG Version: 6.00 Build 0)  -->
<!DOCTYPE svg PUBLIC "-//W3C//DTD SVG 1.1//EN" "http://www.w3.org/Graphics/SVG/1.1/DTD/svg11.dtd">
<svg version="1.1" xmlns="http://www.w3.org/2000/svg" xmlns:xlink="http://www.w3.org/1999/xlink" x="0px" y="0px"
	 viewBox="0 0 402.5 123.7" enable-background="new 0 0 402.5 123.7" xml:space="preserve">
<g id="background" display="none">
	<rect x="-125.2" y="68.5" display="inline" fill="#231F20" width="612" height="801.8"/>
</g>
<g id="Layer_1">
	<g>
		<path d="M0,0v123.7h402.5V0H0z M5.9,117.2V6.5h390.7v110.8H5.9z"/>
		<g>
			<path d="M99.8,47.5v5.1H83.6v7.6h15.3v5.1H83.6v13.3h-7v-31H99.8z"/>
			<path d="M118.1,47.5h7v19c0,5.2,3.3,8.1,8.6,8.1c5.2,0,8.6-2.5,8.6-8.3V47.5h7v18.7c0,7.1-3,13.2-16.6,13.2
				c-7.5,0-14.5-3.8-14.5-12V47.5z"/>
			<path d="M195.2,47.5v5.1h-11.8v26h-7v-26h-11.8v-5.1H195.2z"/>
			<path d="M210.5,47.5h7v19c0,5.2,3.3,8.1,8.6,8.1c5.2,0,8.6-2.5,8.6-8.3V47.5h7v18.7c0,7.1-3,13.2-16.6,13.2
				c-7.5,0-14.5-3.8-14.5-12V47.5z"/>
			<path d="M262.8,47.5h18.6c6.8,0,12,2.2,12,8.3c0,5.4-3.8,7.7-8.6,8v0.1c7.1,0.3,7.7,3.5,8,9.2c0.1,2.6,0.5,4.2,0.9,5.4h-7.5
				c-0.4-0.9-0.6-3.1-0.7-4.9c-0.3-6.1-1.7-7.4-8.5-7.4h-7.4v12.3h-7V47.5z M269.7,61.4h9c4.1,0,7.4-0.9,7.4-4.6
				c0-3.7-3.4-4.3-7.1-4.3h-9.3V61.4z"/>
			<path d="M315.5,47.5h7v31h-7V47.5z"/>
		</g>
	</g>
</g>
</svg>
