<?xml version="1.0" encoding="utf-8"?>
<!-- Generator: Adobe Illustrator 18.0.0, SVG Export Plug-In . SVG Version: 6.00 Build 0)  -->
<!DOCTYPE svg PUBLIC "-//W3C//DTD SVG 1.1//EN" "http://www.w3.org/Graphics/SVG/1.1/DTD/svg11.dtd">
<svg version="1.1" id="Layer_1" xmlns="http://www.w3.org/2000/svg" xmlns:xlink="http://www.w3.org/1999/xlink" x="0px" y="0px"
	 viewBox="0 0 328.2 328.2" enable-background="new 0 0 328.2 328.2" xml:space="preserve">
<g>
	<path d="M164.2,292.2c-41,0-82,0-123,0c-5.3,0-5.5-0.2-5.5-5.5c0-81.9,0-163.7,0-245.6c0-5,0.4-5.4,5.3-5.4c82,0,164,0,246,0
		c5.2,0,5.4,0.2,5.4,5.6c0,81.9,0,163.7,0,245.6c0,5.2-0.1,5.3-5.2,5.3C246.2,292.2,205.2,292.2,164.2,292.2z M208.5,40.2
		c0,26.6,0,52.9,0,79.4c26.7,0,53.1,0,79.6,0c0-26.6,0-52.9,0-79.4C261.5,40.2,235.2,40.2,208.5,40.2z M124.4,124.2
		c0,26.7,0,53,0,79.5c26.6,0,53,0,79.6,0c0-26.6,0-53,0-79.5C177.3,124.2,151,124.2,124.4,124.2z M40.2,119.5c26.8,0,53.2,0,79.5,0
		c0-26.6,0-52.9,0-79.2c-26.7,0-53.1,0-79.5,0C40.2,66.9,40.2,93.1,40.2,119.5z M119.8,124.4c-26.7,0-53.1,0-79.5,0
		c0,26.6,0,52.9,0,79.3c26.6,0,53,0,79.5,0C119.8,177.1,119.8,150.9,119.8,124.4z M124.3,287.8c26.8,0,53.2,0,79.6,0
		c0-26.7,0-53.1,0-79.4c-26.7,0-53.1,0-79.6,0C124.3,235,124.3,261.2,124.3,287.8z M208.5,208.3c0,26.7,0,53,0,79.5
		c26.6,0,53.1,0,79.5,0c0-26.6,0-53,0-79.5C261.4,208.3,235.1,208.3,208.5,208.3z M288,203.7c0-26.6,0-53,0-79.4
		c-26.7,0-53.1,0-79.6,0c0,26.5,0,52.8,0,79.4C235.1,203.7,261.5,203.7,288,203.7z M40.3,287.9c26.6,0,52.9,0,79.4,0
		c0-26.6,0-53,0-79.5c-26.6,0-52.9,0-79.4,0C40.3,234.8,40.3,261.2,40.3,287.9z M204,40.4c-26.8,0-53.2,0-79.5,0
		c0,26.6,0,52.9,0,79.3c26.6,0,52.9,0,79.5,0C204,93.1,204,66.8,204,40.4z"/>
	<path fill="#FFFFFF" d="M208.5,40.2c26.7,0,53,0,79.6,0c0,26.5,0,52.8,0,79.4c-26.5,0-52.9,0-79.6,0
		C208.5,93.2,208.5,66.9,208.5,40.2z"/>
	<path fill="#FFFFFF" d="M124.4,124.2c26.7,0,53,0,79.6,0c0,26.5,0,52.9,0,79.5c-26.6,0-53,0-79.6,0
		C124.4,177.2,124.4,150.9,124.4,124.2z"/>
	<path fill="#FFFFFF" d="M40.2,119.5c0-26.5,0-52.7,0-79.2c26.4,0,52.8,0,79.5,0c0,26.3,0,52.5,0,79.2
		C93.3,119.5,67,119.5,40.2,119.5z"/>
	<path fill="#FFFFFF" d="M119.8,124.4c0,26.5,0,52.8,0,79.3c-26.5,0-52.9,0-79.5,0c0-26.4,0-52.7,0-79.3
		C66.7,124.4,93.1,124.4,119.8,124.4z"/>
	<path fill="#FFFFFF" d="M124.3,287.8c0-26.6,0-52.8,0-79.4c26.5,0,52.9,0,79.6,0c0,26.3,0,52.7,0,79.4
		C177.4,287.8,151,287.8,124.3,287.8z M165.8,277.3c16.5-0.7,28.4-15.1,27.7-30.4c-0.9-17.7-15.6-29-30.7-28.1
		c-17.7,1.1-28.8,15.6-27.9,30.6C136,266.4,149.9,278.7,165.8,277.3z"/>
	<path fill="#FFFFFF" d="M208.5,208.3c26.6,0,52.9,0,79.5,0c0,26.5,0,52.9,0,79.5c-26.5,0-52.9,0-79.5,0
		C208.5,261.3,208.5,235,208.5,208.3z M246.6,277.3c16,1.4,30.1-11.1,31-28.2c0.7-15-10.3-29.2-27.8-30.3
		c-14.9-0.9-29.9,10.2-30.8,28.1C218.2,262.2,230.1,276.6,246.6,277.3z"/>
	<path fill="#FFFFFF" d="M288,203.7c-26.5,0-52.9,0-79.6,0c0-26.5,0-52.8,0-79.4c26.5,0,52.9,0,79.6,0
		C288,150.7,288,177.1,288,203.7z M248.2,193.4c16,0.1,29.3-12.9,29.6-29.1c0.3-15.9-13.4-29.7-29.5-29.6c-16,0-29.3,13.3-29.4,29.4
		C218.8,180,232,193.2,248.2,193.4z"/>
	<path fill="#FFFFFF" d="M40.3,287.9c0-26.7,0-53,0-79.5c26.5,0,52.8,0,79.4,0c0,26.5,0,52.9,0,79.5
		C93.2,287.9,66.9,287.9,40.3,287.9z M109.4,248c-0.1-16.1-13.3-29.3-29.3-29.3c-16.1,0-29.6,13.6-29.4,29.7
		c0.2,16.1,13.7,29.3,29.6,29.1C96.4,277.3,109.5,264.1,109.4,248z"/>
	<path fill="#FFFFFF" d="M204,40.4c0,26.5,0,52.8,0,79.3c-26.6,0-52.9,0-79.5,0c0-26.4,0-52.7,0-79.3
		C150.7,40.4,177.2,40.4,204,40.4z M164.1,109.3c16.1,0,29.3-13,29.5-29.2c0.2-15.9-13.1-29.3-29.2-29.5
		c-16.1-0.2-29.8,13.4-29.7,29.4C134.8,96.1,148,109.2,164.1,109.3z"/>
	<path d="M165.8,277.3c-15.8,1.3-29.8-10.9-30.9-27.9c-1-15,10.2-29.6,27.9-30.6c15.1-0.9,29.9,10.4,30.7,28.1
		C194.2,262.2,182.3,276.6,165.8,277.3z"/>
	<path d="M246.6,277.3c-16.6-0.7-28.4-15.2-27.7-30.4c0.9-17.9,15.8-29,30.8-28.1c17.5,1.1,28.6,15.3,27.8,30.3
		C276.8,266.2,262.7,278.7,246.6,277.3z"/>
	<path d="M248.2,193.4c-16.1-0.1-29.4-13.4-29.3-29.4c0.1-16,13.4-29.3,29.4-29.4c16.1,0,29.8,13.7,29.5,29.6
		C277.5,180.5,264.2,193.5,248.2,193.4z"/>
	<path d="M109.4,248c0.1,16-13,29.2-29.2,29.5c-15.9,0.2-29.4-13-29.6-29.1c-0.2-16.1,13.3-29.7,29.4-29.7
		C96.1,218.7,109.3,231.9,109.4,248z"/>
	<path d="M164.1,109.3c-16.1,0-29.4-13.2-29.4-29.2c-0.1-16.1,13.6-29.6,29.7-29.4c16.1,0.2,29.4,13.6,29.2,29.5
		C193.4,96.3,180.2,109.3,164.1,109.3z"/>
</g>
</svg>
