<?xml version="1.0" encoding="UTF-8" standalone="no"?>
<svg
   xmlns:dc="http://purl.org/dc/elements/1.1/"
   xmlns:cc="http://creativecommons.org/ns#"
   xmlns:rdf="http://www.w3.org/1999/02/22-rdf-syntax-ns#"
   xmlns:svg="http://www.w3.org/2000/svg"
   xmlns="http://www.w3.org/2000/svg"
   viewBox="0 0 149.257 44.903873"
   height="44.903873"
   width="149.257"
   xml:space="preserve"
   version="1.1"
   id="svg4984"><metadata
     id="metadata4990"><rdf:RDF><cc:Work
         rdf:about=""><dc:format>image/svg+xml</dc:format><dc:type
           rdf:resource="http://purl.org/dc/dcmitype/StillImage" /><dc:title></dc:title></cc:Work></rdf:RDF></metadata><defs
     id="defs4988"><clipPath
       id="clipPath4998"
       clipPathUnits="userSpaceOnUse"><path
         id="path5000"
         d="m 18,356.64 229.36,0 0,237.36 L 18,594 18,356.64 Z" /></clipPath><clipPath
       id="clipPath5012"
       clipPathUnits="userSpaceOnUse"><path
         id="path5014"
         d="m 246.88,153.12 131.12,0 0,440.88 -131.12,0 0,-440.88 z" /></clipPath><clipPath
       id="clipPath5026"
       clipPathUnits="userSpaceOnUse"><path
         id="path5028"
         d="m 18,119.28 229.36,0 0,237.84 -229.36,0 0,-237.84 z" /></clipPath><clipPath
       id="clipPath5040"
       clipPathUnits="userSpaceOnUse"><path
         id="path5042"
         d="m 246.88,18 131.12,0 0,135.6 -131.12,0 0,-135.6 z" /></clipPath><clipPath
       id="clipPath5054"
       clipPathUnits="userSpaceOnUse"><path
         id="path5056"
         d="m 18,18 229.36,0 0,101.76 L 18,119.76 18,18 Z" /></clipPath><clipPath
       id="clipPath5068"
       clipPathUnits="userSpaceOnUse"><path
         id="path5070"
         d="M 0,0 396,0 396,612 0,612 0,0 Z" /></clipPath><clipPath
       id="clipPath5296"
       clipPathUnits="userSpaceOnUse"><path
         id="path5298"
         d="M 0,0 396,0 396,612 0,612 0,0 Z" /></clipPath></defs><g
     transform="matrix(1.25,0,0,-1.25,297.81337,209.43188)"
     id="g4992"><path
       d="m -235.4637,134.2949 -2.787,0 0,0.218 c 0.711,0.035 0.86,0.218 0.86,0.986 l 0,4.886 c 0,0.619 -0.218,0.791 -0.86,0.826 l 0,0.218 2.787,0 0,-0.218 c -0.723,0 -0.975,-0.161 -0.975,-0.929 l 0,-4.863 c 0,-0.677 0.184,-0.906 0.975,-0.906 l 0,-0.218 z"
       style="fill:#231f20;fill-opacity:1;fill-rule:nonzero;stroke:none"
       id="path5302" /><path
       d="m -233.0553,135.2929 c 0,-0.631 0.149,-0.78 0.768,-0.78 l 0,-0.218 -2.305,0 0,0.218 c 0.505,0 0.768,0.275 0.768,0.723 l 0,2.408 c 0,0.424 -0.045,0.504 -0.344,0.562 l -0.39,0.08 0,0.184 1.319,0.481 0.184,0 0,-0.894 c 0.768,0.481 1.41,0.906 1.973,0.906 0.779,0 1.226,-0.574 1.226,-1.721 0,-1.525 -0.08,-1.823 -0.091,-2.271 -0.012,-0.309 0.172,-0.458 0.642,-0.458 l 0.252,0 0,-0.218 -2.465,0 0,0.218 c 0.332,0.012 0.527,0.091 0.653,0.218 0.218,0.218 0.241,1.055 0.241,2.58 0,0.918 -0.447,1.204 -0.906,1.204 -0.367,0 -0.929,-0.321 -1.525,-0.734 l 0,-2.488 z"
       style="fill:#231f20;fill-opacity:1;fill-rule:nonzero;stroke:none"
       id="path5306" /><path
       d="m -225.5896,138.8364 -0.183,-0.505 -1.457,0 0,-2.672 c 0,-0.722 0.516,-0.963 0.757,-0.963 0.252,0 0.482,0.195 0.7,0.573 l 0.183,-0.172 c -0.275,-0.596 -0.722,-0.94 -1.25,-0.94 -0.677,0 -1.158,0.562 -1.158,1.33 l 0,2.844 -0.528,0 0,0.184 c 0.447,0.218 0.837,0.746 1.101,1.456 l 0.195,0 0,-1.135 1.64,0 z"
       style="fill:#231f20;fill-opacity:1;fill-rule:nonzero;stroke:none"
       id="path5310" /><path
       d="m -224.1445,137.2081 c -0.023,-0.172 -0.046,-0.333 -0.046,-0.482 0,-1.193 0.837,-1.995 1.743,-1.995 0.574,0 1.021,0.229 1.457,0.745 l 0.126,-0.137 c -0.482,-0.608 -1.204,-1.182 -2.041,-1.182 -1.124,0 -1.996,1.021 -1.996,2.352 0,1.215 0.814,2.453 2.214,2.453 1.548,0 1.513,-1.112 1.892,-1.49 l 0,-0.264 -3.349,0 z m 2.386,0.298 c -0.127,0.745 -0.585,1.238 -1.136,1.238 -0.378,0 -0.952,-0.171 -1.216,-1.238 l 2.352,0 z"
       style="fill:#231f20;fill-opacity:1;fill-rule:nonzero;stroke:none"
       id="path5314" /><path
       d="m -218.5367,135.1323 c 0,-0.47 0.172,-0.62 0.746,-0.62 l 0.436,0 0,-0.217 -2.718,0 0,0.217 c 0.584,0.012 0.768,0.253 0.768,0.861 l 0,2.649 -0.768,0.275 0,0.195 1.307,0.459 0.229,0 0,-1.216 0.023,0 c 0.574,0.941 0.711,1.158 1.09,1.158 0.137,0 0.172,-0.011 0.39,-0.103 0.114,-0.046 0.321,-0.091 0.596,-0.172 l -0.275,-0.688 c -0.172,0.023 -0.39,0.081 -0.608,0.184 -0.126,0.057 -0.264,0.114 -0.402,0.114 -0.206,0 -0.332,-0.137 -0.447,-0.298 -0.149,-0.206 -0.275,-0.401 -0.367,-0.574 l 0,-2.224 z"
       style="fill:#231f20;fill-opacity:1;fill-rule:nonzero;stroke:none"
       id="path5318" /><path
       d="m -214.2037,135.2929 c 0,-0.631 0.149,-0.78 0.768,-0.78 l 0,-0.218 -2.305,0 0,0.218 c 0.505,0 0.769,0.275 0.769,0.723 l 0,2.408 c 0,0.424 -0.046,0.504 -0.344,0.562 l -0.39,0.08 0,0.184 1.318,0.481 0.184,0 0,-0.894 c 0.768,0.481 1.411,0.906 1.973,0.906 0.779,0 1.227,-0.574 1.227,-1.721 0,-1.525 -0.081,-1.823 -0.092,-2.271 -0.012,-0.309 0.172,-0.458 0.642,-0.458 l 0.253,0 0,-0.218 -2.466,0 0,0.218 c 0.333,0.012 0.527,0.091 0.653,0.218 0.218,0.218 0.241,1.055 0.241,2.58 0,0.918 -0.447,1.204 -0.906,1.204 -0.367,0 -0.929,-0.321 -1.525,-0.734 l 0,-2.488 z"
       style="fill:#231f20;fill-opacity:1;fill-rule:nonzero;stroke:none"
       id="path5322" /><path
       d="m -209.4901,137.4717 -0.034,0.16 c 0,0.402 0.951,1.331 1.697,1.331 0.344,0 0.883,-0.16 1.204,-0.608 0.172,-0.241 0.172,-0.39 0.172,-0.986 l 0,-1.537 c 0,-0.918 0,-1.124 0.298,-1.124 0.126,0 0.276,0.011 0.562,0.252 l 0.058,-0.172 c -0.62,-0.504 -0.941,-0.631 -1.136,-0.631 -0.47,0 -0.516,0.517 -0.527,0.7 -0.792,-0.654 -1.021,-0.7 -1.331,-0.7 -0.665,0 -1.066,0.379 -1.066,0.941 0,0.7 0.619,0.941 1.353,1.124 0.241,0.057 0.619,0.195 1.021,0.436 l 0,0.905 c 0,0.322 0,0.505 -0.195,0.735 -0.149,0.183 -0.39,0.332 -0.642,0.332 -0.379,0 -0.711,-0.321 -0.711,-0.562 0,-0.068 0.011,-0.114 0.057,-0.217 l -0.78,-0.379 z m 2.271,-1.044 c -0.218,-0.126 -0.402,-0.206 -0.677,-0.321 -0.699,-0.286 -0.963,-0.401 -0.963,-0.871 0,-0.414 0.332,-0.677 0.676,-0.677 0.184,0 0.321,0.057 0.964,0.504 l 0,1.365 z"
       style="fill:#231f20;fill-opacity:1;fill-rule:nonzero;stroke:none"
       id="path5326" /><path
       d="m -202.1389,138.8364 -0.183,-0.505 -1.457,0 0,-2.672 c 0,-0.722 0.516,-0.963 0.757,-0.963 0.252,0 0.482,0.195 0.7,0.573 l 0.183,-0.172 c -0.275,-0.596 -0.723,-0.94 -1.25,-0.94 -0.677,0 -1.159,0.562 -1.159,1.33 l 0,2.844 -0.527,0 0,0.184 c 0.447,0.218 0.837,0.746 1.101,1.456 l 0.195,0 0,-1.135 1.64,0 z"
       style="fill:#231f20;fill-opacity:1;fill-rule:nonzero;stroke:none"
       id="path5330" /><path
       d="m -200.0746,135.1664 c 0,-0.401 0.218,-0.654 0.826,-0.654 l 0,-0.218 -2.546,0 0,0.218 c 0.699,0 0.952,0.23 0.952,0.838 l 0,2.305 c 0,0.447 -0.058,0.504 -0.356,0.562 l -0.539,0.103 0,0.183 1.491,0.517 0.172,0 0,-3.854 z m -0.47,6.434 c 0.275,0 0.504,-0.195 0.504,-0.436 0,-0.241 -0.229,-0.436 -0.504,-0.436 -0.275,0 -0.493,0.195 -0.493,0.436 0,0.241 0.218,0.436 0.493,0.436"
       style="fill:#231f20;fill-opacity:1;fill-rule:nonzero;stroke:none"
       id="path5334" /><path
       d="m -195.969,138.9625 c 1.399,0 2.466,-1.044 2.466,-2.408 0,-1.353 -1.067,-2.397 -2.432,-2.397 -1.422,0 -2.511,1.032 -2.511,2.374 0,1.582 1.284,2.431 2.477,2.431 m 0.161,-4.53 c 0.676,0 1.445,0.689 1.445,1.835 0,1.307 -0.803,2.42 -1.767,2.42 -0.756,0 -1.456,-0.78 -1.456,-1.767 0,-1.387 0.791,-2.488 1.778,-2.488"
       style="fill:#231f20;fill-opacity:1;fill-rule:nonzero;stroke:none"
       id="path5338" /><path
       d="m -191.0947,135.2929 c 0,-0.631 0.149,-0.78 0.768,-0.78 l 0,-0.218 -2.305,0 0,0.218 c 0.505,0 0.769,0.275 0.769,0.723 l 0,2.408 c 0,0.424 -0.046,0.504 -0.345,0.562 l -0.39,0.08 0,0.184 1.319,0.481 0.184,0 0,-0.894 c 0.768,0.481 1.411,0.906 1.973,0.906 0.779,0 1.227,-0.574 1.227,-1.721 0,-1.525 -0.081,-1.823 -0.092,-2.271 -0.012,-0.309 0.172,-0.458 0.642,-0.458 l 0.253,0 0,-0.218 -2.466,0 0,0.218 c 0.332,0.012 0.527,0.091 0.653,0.218 0.218,0.218 0.241,1.055 0.241,2.58 0,0.918 -0.447,1.204 -0.906,1.204 -0.367,0 -0.929,-0.321 -1.525,-0.734 l 0,-2.488 z"
       style="fill:#231f20;fill-opacity:1;fill-rule:nonzero;stroke:none"
       id="path5342" /><path
       d="m -186.3813,137.4717 -0.034,0.16 c 0,0.402 0.952,1.331 1.697,1.331 0.344,0 0.883,-0.16 1.204,-0.608 0.172,-0.241 0.172,-0.39 0.172,-0.986 l 0,-1.537 c 0,-0.918 0,-1.124 0.299,-1.124 0.126,0 0.275,0.011 0.561,0.252 l 0.058,-0.172 c -0.619,-0.504 -0.941,-0.631 -1.136,-0.631 -0.47,0 -0.516,0.517 -0.527,0.7 -0.792,-0.654 -1.021,-0.7 -1.33,-0.7 -0.666,0 -1.067,0.379 -1.067,0.941 0,0.7 0.619,0.941 1.353,1.124 0.241,0.057 0.62,0.195 1.021,0.436 l 0,0.905 c 0,0.322 0,0.505 -0.195,0.735 -0.149,0.183 -0.39,0.332 -0.642,0.332 -0.379,0 -0.711,-0.321 -0.711,-0.562 0,-0.068 0.011,-0.114 0.057,-0.217 l -0.78,-0.379 z m 2.271,-1.044 c -0.218,-0.126 -0.401,-0.206 -0.677,-0.321 -0.699,-0.286 -0.963,-0.401 -0.963,-0.871 0,-0.414 0.333,-0.677 0.677,-0.677 0.183,0 0.321,0.057 0.963,0.504 l 0,1.365 z"
       style="fill:#231f20;fill-opacity:1;fill-rule:nonzero;stroke:none"
       id="path5346" /><path
       d="m -180.5091,135.201 c 0,-0.47 0.218,-0.688 0.665,-0.688 l 0.195,0 0,-0.218 -2.581,0 0,0.218 c 0.735,0 0.953,0.218 0.953,0.768 l 0,5.539 c 0,0.321 -0.035,0.425 -0.356,0.459 l -0.516,0.058 0,0.195 1.468,0.47 0.172,0 0,-6.801 z"
       style="fill:#231f20;fill-opacity:1;fill-rule:nonzero;stroke:none"
       id="path5350" /><path
       d="m -168.8459,139.5472 c -0.378,1.067 -1.365,1.766 -2.615,1.766 -1.915,0 -3.108,-1.387 -3.108,-3.314 0,-2.076 1.491,-3.601 3.234,-3.601 0.906,0 2.019,0.31 2.799,1.697 l 0.218,0 c -0.15,-0.516 -0.459,-1.227 -0.734,-1.674 -0.734,0.103 -1.239,-0.31 -2.592,-0.31 -2.328,0 -4.003,1.537 -4.003,3.659 0,2.224 1.72,3.83 4.117,3.83 1.446,0 2.065,-0.459 2.42,-0.459 0.126,0 0.184,0.035 0.207,0.069 l 0.172,0 0.103,-1.663 -0.218,0 z"
       style="fill:#231f20;fill-opacity:1;fill-rule:nonzero;stroke:none"
       id="path5354" /><path
       d="m -164.8321,138.9625 c 1.399,0 2.466,-1.044 2.466,-2.408 0,-1.353 -1.067,-2.397 -2.431,-2.397 -1.423,0 -2.512,1.032 -2.512,2.374 0,1.582 1.284,2.431 2.477,2.431 m 0.161,-4.53 c 0.676,0 1.445,0.689 1.445,1.835 0,1.307 -0.803,2.42 -1.767,2.42 -0.756,0 -1.456,-0.78 -1.456,-1.767 0,-1.387 0.792,-2.488 1.778,-2.488"
       style="fill:#231f20;fill-opacity:1;fill-rule:nonzero;stroke:none"
       id="path5358" /><path
       d="m -159.9578,135.1323 c 0,-0.47 0.172,-0.62 0.746,-0.62 l 0.435,0 0,-0.217 -2.718,0 0,0.217 c 0.585,0.012 0.769,0.253 0.769,0.861 l 0,2.649 -0.769,0.275 0,0.195 1.307,0.459 0.23,0 0,-1.216 0.023,0 c 0.573,0.941 0.711,1.158 1.089,1.158 0.138,0 0.173,-0.011 0.39,-0.103 0.115,-0.046 0.321,-0.091 0.597,-0.172 l -0.276,-0.688 c -0.172,0.023 -0.389,0.081 -0.607,0.184 -0.126,0.057 -0.264,0.114 -0.402,0.114 -0.206,0 -0.333,-0.137 -0.447,-0.298 -0.149,-0.206 -0.275,-0.401 -0.367,-0.574 l 0,-2.224 z"
       style="fill:#231f20;fill-opacity:1;fill-rule:nonzero;stroke:none"
       id="path5362" /><path
       d="m -155.7397,132.5864 c 0,-0.574 0.287,-0.746 0.768,-0.746 l 0.287,0 0,-0.218 -2.706,0 0,0.218 0.114,0 c 0.585,0 0.769,0.195 0.769,0.849 l 0,5.058 c 0,0.218 -0.046,0.309 -0.322,0.378 l -0.367,0.092 0,0.218 1.228,0.757 0.229,0 0,-1.101 c 0.711,0.539 1.319,0.837 1.777,0.837 0.895,0 1.698,-1.009 1.698,-2.133 0,-1.388 -1.124,-2.581 -2.431,-2.581 -0.31,0 -0.608,0.069 -1.044,0.23 l 0,-1.858 z m 0,2.603 c 0.413,-0.367 0.929,-0.619 1.353,-0.619 0.78,0 1.353,0.769 1.353,1.709 0,1.513 -0.894,2.087 -1.502,2.087 -0.356,0 -0.791,-0.207 -1.204,-0.562 l 0,-2.615 z"
       style="fill:#231f20;fill-opacity:1;fill-rule:nonzero;stroke:none"
       id="path5366" /><path
       d="m -148.6752,138.9625 c 1.399,0 2.466,-1.044 2.466,-2.408 0,-1.353 -1.067,-2.397 -2.432,-2.397 -1.422,0 -2.511,1.032 -2.511,2.374 0,1.582 1.285,2.431 2.477,2.431 m 0.161,-4.53 c 0.676,0 1.444,0.689 1.444,1.835 0,1.307 -0.802,2.42 -1.765,2.42 -0.758,0 -1.457,-0.78 -1.457,-1.767 0,-1.387 0.791,-2.488 1.778,-2.488"
       style="fill:#231f20;fill-opacity:1;fill-rule:nonzero;stroke:none"
       id="path5370" /><path
       d="m -143.8011,135.1323 c 0,-0.47 0.172,-0.62 0.746,-0.62 l 0.435,0 0,-0.217 -2.718,0 0,0.217 c 0.585,0.012 0.769,0.253 0.769,0.861 l 0,2.649 -0.769,0.275 0,0.195 1.308,0.459 0.229,0 0,-1.216 0.023,0 c 0.574,0.941 0.711,1.158 1.089,1.158 0.138,0 0.172,-0.011 0.391,-0.103 0.114,-0.046 0.321,-0.091 0.596,-0.172 l -0.275,-0.688 c -0.172,0.023 -0.39,0.081 -0.609,0.184 -0.125,0.057 -0.263,0.114 -0.401,0.114 -0.206,0 -0.332,-0.137 -0.447,-0.298 -0.149,-0.206 -0.275,-0.401 -0.367,-0.574 l 0,-2.224 z"
       style="fill:#231f20;fill-opacity:1;fill-rule:nonzero;stroke:none"
       id="path5374" /><path
       d="m -141.2433,137.4717 -0.035,0.16 c 0,0.402 0.952,1.331 1.698,1.331 0.344,0 0.883,-0.16 1.204,-0.608 0.172,-0.241 0.172,-0.39 0.172,-0.986 l 0,-1.537 c 0,-0.918 0,-1.124 0.298,-1.124 0.126,0 0.275,0.011 0.562,0.252 l 0.057,-0.172 c -0.619,-0.504 -0.94,-0.631 -1.135,-0.631 -0.47,0 -0.516,0.517 -0.527,0.7 -0.792,-0.654 -1.021,-0.7 -1.331,-0.7 -0.665,0 -1.066,0.379 -1.066,0.941 0,0.7 0.619,0.941 1.353,1.124 0.24,0.057 0.619,0.195 1.02,0.436 l 0,0.905 c 0,0.322 0,0.505 -0.194,0.735 -0.149,0.183 -0.39,0.332 -0.643,0.332 -0.378,0 -0.71,-0.321 -0.71,-0.562 0,-0.068 0.011,-0.114 0.057,-0.217 l -0.78,-0.379 z m 2.27,-1.044 c -0.217,-0.126 -0.401,-0.206 -0.676,-0.321 -0.7,-0.286 -0.964,-0.401 -0.964,-0.871 0,-0.414 0.333,-0.677 0.677,-0.677 0.183,0 0.321,0.057 0.963,0.504 l 0,1.365 z"
       style="fill:#231f20;fill-opacity:1;fill-rule:nonzero;stroke:none"
       id="path5378" /><path
       d="m -133.8923,138.8364 -0.183,-0.505 -1.457,0 0,-2.672 c 0,-0.722 0.516,-0.963 0.757,-0.963 0.252,0 0.482,0.195 0.7,0.573 l 0.183,-0.172 c -0.275,-0.596 -0.723,-0.94 -1.25,-0.94 -0.677,0 -1.158,0.562 -1.158,1.33 l 0,2.844 -0.528,0 0,0.184 c 0.448,0.218 0.837,0.746 1.101,1.456 l 0.195,0 0,-1.135 1.64,0 z"
       style="fill:#231f20;fill-opacity:1;fill-rule:nonzero;stroke:none"
       id="path5382" /><path
       d="m -131.828,135.1664 c 0,-0.401 0.218,-0.654 0.826,-0.654 l 0,-0.218 -2.546,0 0,0.218 c 0.699,0 0.952,0.23 0.952,0.838 l 0,2.305 c 0,0.447 -0.058,0.504 -0.356,0.562 l -0.539,0.103 0,0.183 1.491,0.517 0.172,0 0,-3.854 z m -0.47,6.434 c 0.275,0 0.504,-0.195 0.504,-0.436 0,-0.241 -0.229,-0.436 -0.504,-0.436 -0.275,0 -0.493,0.195 -0.493,0.436 0,0.241 0.218,0.436 0.493,0.436"
       style="fill:#231f20;fill-opacity:1;fill-rule:nonzero;stroke:none"
       id="path5386" /><path
       d="m -127.7217,138.9625 c 1.399,0 2.465,-1.044 2.465,-2.408 0,-1.353 -1.066,-2.397 -2.431,-2.397 -1.422,0 -2.512,1.032 -2.512,2.374 0,1.582 1.285,2.431 2.478,2.431 m 0.16,-4.53 c 0.677,0 1.445,0.689 1.445,1.835 0,1.307 -0.802,2.42 -1.766,2.42 -0.757,0 -1.456,-0.78 -1.456,-1.767 0,-1.387 0.791,-2.488 1.777,-2.488"
       style="fill:#231f20;fill-opacity:1;fill-rule:nonzero;stroke:none"
       id="path5390" /><path
       d="m -122.8481,135.2929 c 0,-0.631 0.149,-0.78 0.769,-0.78 l 0,-0.218 -2.306,0 0,0.218 c 0.505,0 0.768,0.275 0.768,0.723 l 0,2.408 c 0,0.424 -0.045,0.504 -0.344,0.562 l -0.39,0.08 0,0.184 1.32,0.481 0.183,0 0,-0.894 c 0.769,0.481 1.41,0.906 1.973,0.906 0.779,0 1.227,-0.574 1.227,-1.721 0,-1.525 -0.081,-1.823 -0.092,-2.271 -0.012,-0.309 0.172,-0.458 0.642,-0.458 l 0.253,0 0,-0.218 -2.466,0 0,0.218 c 0.332,0.012 0.527,0.091 0.653,0.218 0.218,0.218 0.241,1.055 0.241,2.58 0,0.918 -0.447,1.204 -0.906,1.204 -0.367,0 -0.929,-0.321 -1.525,-0.734 l 0,-2.488 z"
       style="fill:#231f20;fill-opacity:1;fill-rule:nonzero;stroke:none"
       id="path5394" /><path
       d="m -225.0908,146.165 -8.113,16.958 -0.064,0 -0.859,-14.317 c -0.095,-1.623 1.114,-1.973 2.545,-2.036 l 0,-0.605 -6.618,0 0,0.605 c 2.323,0 2.609,0.508 2.769,3.404 l 0.763,12.377 c 0.127,2.099 0.064,2.672 -1.909,2.799 l 0,0.573 4.804,0 7.668,-16.035 7.636,16.035 4.677,0 0,-0.573 c -1.559,-0.127 -2.163,-0.159 -2.1,-1.24 l 1.019,-14.413 c 0.19,-2.927 0.445,-2.927 2.768,-2.927 l 0,-0.605 -8.177,0 0,0.605 c 1.495,0 2.959,0.413 2.831,2.1 l -0.922,14.253 -0.064,0 -7.922,-16.958 -0.732,0 z"
       style="fill:#e21f26;fill-opacity:1;fill-rule:nonzero;stroke:none"
       id="path5398" /><path
       d="m -207.538,154.9783 c -0.064,0.191 -0.095,0.286 -0.095,0.445 0,1.114 2.64,3.691 4.708,3.691 0.955,0 2.45,-0.446 3.341,-1.686 0.477,-0.669 0.477,-1.082 0.477,-2.736 l 0,-4.264 c 0,-2.545 0,-3.118 0.828,-3.118 0.35,0 0.763,0.032 1.559,0.7 l 0.159,-0.477 c -1.718,-1.4 -2.609,-1.75 -3.15,-1.75 -1.305,0 -1.432,1.432 -1.464,1.941 -2.195,-1.814 -2.831,-1.941 -3.69,-1.941 -1.846,0 -2.959,1.05 -2.959,2.609 0,1.941 1.718,2.609 3.754,3.118 0.668,0.159 1.718,0.541 2.832,1.209 l 0,2.513 c 0,0.891 0,1.4 -0.541,2.037 -0.414,0.509 -1.082,0.922 -1.782,0.922 -1.05,0 -1.972,-0.89 -1.972,-1.559 0,-0.19 0.031,-0.318 0.159,-0.604 l -2.164,-1.05 z m 6.3,-2.896 c -0.605,-0.349 -1.114,-0.572 -1.877,-0.89 -1.941,-0.796 -2.673,-1.114 -2.673,-2.418 0,-1.146 0.923,-1.877 1.877,-1.877 0.509,0 0.891,0.159 2.673,1.4 l 0,3.785 z"
       style="fill:#e21f26;fill-opacity:1;fill-rule:nonzero;stroke:none"
       id="path5402" /><path
       d="m -190.3443,148.9331 c 0,-1.75 0.414,-2.164 2.132,-2.164 l 0,-0.604 -6.395,0 0,0.604 c 1.4,0 2.131,0.764 2.131,2.005 l 0,6.681 c 0,1.178 -0.127,1.4 -0.954,1.56 l -1.082,0.222 0,0.509 3.659,1.337 0.509,0 0,-2.482 c 2.132,1.336 3.913,2.513 5.472,2.513 2.164,0 3.405,-1.59 3.405,-4.772 0,-4.232 -0.223,-5.059 -0.255,-6.3 -0.032,-0.859 0.478,-1.273 1.782,-1.273 l 0.7,0 0,-0.604 -6.84,0 0,0.604 c 0.922,0.032 1.463,0.255 1.813,0.605 0.604,0.604 0.668,2.927 0.668,7.159 0,2.545 -1.241,3.34 -2.513,3.34 -1.018,0 -2.577,-0.891 -4.232,-2.036 l 0,-6.904 z"
       style="fill:#e21f26;fill-opacity:1;fill-rule:nonzero;stroke:none"
       id="path5406" /><path
       d="m -169.1075,149.0921 c 0,-1.718 0.572,-2.323 2.513,-2.323 l 1.177,0 0,-0.604 -10.022,0 0,0.604 1.178,0 c 1.941,0 2.513,0.605 2.513,2.323 l 0,15.718 -5.536,0 c -1.273,0 -1.846,-0.732 -2.323,-3.532 l -0.573,0 0.51,5.154 0.604,0 c 0.032,-0.191 0.16,-0.318 0.35,-0.382 0.191,-0.063 0.414,-0.095 0.636,-0.095 l 15.305,0 c 0.445,0 0.922,0.095 0.986,0.477 l 0.604,0 0.509,-5.154 -0.572,0 c -0.478,2.8 -1.051,3.532 -2.323,3.532 l -5.536,0 0,-15.718 z"
       style="fill:#e21f26;fill-opacity:1;fill-rule:nonzero;stroke:none"
       id="path5410" /><path
       d="m -159.8655,154.2463 c -0.063,-0.477 -0.127,-0.923 -0.127,-1.336 0,-3.309 2.323,-5.536 4.836,-5.536 1.591,0 2.832,0.636 4.041,2.068 l 0.35,-0.382 c -1.336,-1.686 -3.341,-3.277 -5.664,-3.277 -3.118,0 -5.536,2.831 -5.536,6.522 0,3.373 2.259,6.809 6.141,6.809 4.295,0 4.2,-3.086 5.25,-4.136 l 0,-0.732 -9.291,0 z m 6.618,0.827 c -0.35,2.069 -1.622,3.436 -3.15,3.436 -1.05,0 -2.64,-0.477 -3.373,-3.436 l 6.523,0 z"
       style="fill:#e21f26;fill-opacity:1;fill-rule:nonzero;stroke:none"
       id="path5414" /><path
       d="m -136.6492,149.0921 c -1.336,-2.132 -3.086,-3.309 -5.631,-3.309 -3.819,0 -5.346,3.627 -5.346,6.141 0,3.977 3.277,7.19 7.318,7.19 2.005,0 3.564,-0.795 3.564,-1.813 0,-0.541 -0.414,-0.955 -0.923,-0.955 -1.559,0 -1.941,1.941 -3.722,1.941 -2.196,0 -4.105,-2.609 -4.105,-5.663 0,-3.182 1.909,-5.536 4.486,-5.536 1.527,0 2.737,0.7 3.882,2.29 l 0.477,-0.286 z"
       style="fill:#e21f26;fill-opacity:1;fill-rule:nonzero;stroke:none"
       id="path5418" /><path
       d="m -129.9459,148.6785 c 0,-1.495 0.414,-1.909 2.068,-1.909 l 0,-0.605 -6.363,0 0,0.605 c 1.749,0.095 2.163,0.7 2.163,2.45 l 0,15.24 c 0,0.7 -0.127,0.955 -0.795,1.05 l -1.368,0.191 0,0.541 3.786,1.304 0.509,0 0,-10.436 c 2.1,1.241 3.627,2.005 5.25,2.005 2.45,0 3.532,-1.527 3.532,-4.741 0,-2.895 -0.064,-4.677 -0.159,-6.395 0.063,-0.859 0.54,-1.209 2.418,-1.209 l 0,-0.605 -6.873,0 0,0.605 c 0.827,0 1.432,0.159 1.782,0.509 0.573,0.572 0.7,1.941 0.7,6.682 0,3.404 -1.846,3.849 -2.895,3.849 -1.05,0 -2.196,-0.509 -3.755,-1.495 l 0,-7.636 z"
       style="fill:#e21f26;fill-opacity:1;fill-rule:nonzero;stroke:none"
       id="path5422" /></g></svg>