<?xml version="1.0" encoding="utf-8"?>
<!-- Generator: Adobe Illustrator 18.0.0, SVG Export Plug-In . SVG Version: 6.00 Build 0)  -->
<!DOCTYPE svg PUBLIC "-//W3C//DTD SVG 1.1//EN" "http://www.w3.org/Graphics/SVG/1.1/DTD/svg11.dtd">
<svg version="1.1" id="Layer_1" xmlns="http://www.w3.org/2000/svg" xmlns:xlink="http://www.w3.org/1999/xlink" x="0px" y="0px"
	 viewBox="0 0 1000 400" enable-background="new 0 0 1000 400" xml:space="preserve">
<g>
	<defs>
		<path id="SVGID_1_" d="M307.7,262.8c-21.5,46.4-62.8,79.3-120,95.5c-57.2-16.2-98.5-49.1-120-95.5C45.2,214,46,131,50.5,75.2
			c67.6-7.3,110.6-19.5,137.2-30.3c26.5,10.8,69.6,23,137.2,30.3C329.5,131,330.2,214,307.7,262.8z M359.2,39.4
			C248.1,31.8,201.8,10.5,187.7,2.3c-14.1,8.2-60.3,29.6-171.5,37.1C12.1,69.7-3.1,202.1,32.4,278.9C60.1,339,113.8,380,187.7,397.6
			C261.6,380,315.3,339,343,278.9C378.5,202.1,363.3,69.7,359.2,39.4z"/>
	</defs>
	<clipPath id="SVGID_2_">
		<use xlink:href="#SVGID_1_"  overflow="visible"/>
	</clipPath>
	<rect x="-0.6" y="-7.7" clip-path="url(#SVGID_2_)" fill="#00C1F2" width="376.5" height="415.4"/>
</g>
<g>
	<defs>
		<path id="SVGID_3_" d="M76.6,224c-9.9-44-7.9-99.8-5.7-129.7c47.4-5.5,86.7-14.2,116.8-26c16.3,6.4,35.3,11.9,56.8,16.5L76.6,224z
			 M122.5,301.3c17.6,15,39.5,26.4,65.2,34c48.3-14.2,83.3-42.4,101.4-81.5c12.9-28,16.7-69,17.1-104.8L122.5,301.3z"/>
	</defs>
	<clipPath id="SVGID_4_">
		<use xlink:href="#SVGID_3_"  overflow="visible"/>
	</clipPath>
	<rect x="59.1" y="58.3" clip-path="url(#SVGID_4_)" fill="#00C1F2" width="257.1" height="286.9"/>
</g>
<g>
	<defs>
		<path id="SVGID_5_" d="M478.8,283.3c0-28.7-8.4-43-25.3-43h-4.2v89h5.4C470.8,329.2,478.8,313.9,478.8,283.3z M505,280.6
			c0,46.3-18.1,69.4-54.1,69.4c-2.7,0-6.8-0.1-12.2-0.4c-6.5-0.3-11.2-0.4-14-0.4V220.2c4.5,0,10.1-0.1,17-0.2
			c6.9-0.1,11.5-0.2,13.8-0.2C488.5,219.8,505,240.1,505,280.6z"/>
	</defs>
	<clipPath id="SVGID_6_">
		<use xlink:href="#SVGID_5_"  overflow="visible"/>
	</clipPath>
	<rect x="414.7" y="209.8" clip-path="url(#SVGID_6_)" width="100.4" height="150.3"/>
</g>
<g>
	<defs>
		<path id="SVGID_7_" d="M562.4,291.3v-3.6c0-14-3.8-21-11.5-21c-7.7,0-11.7,8.2-12.2,24.7H562.4z M586.3,305.9h-47.8v2.9
			c0,15.9,5.5,23.9,16.6,23.9c8,0,17.4-1.5,28.1-4.4l2.9,12.8c-13.4,6.9-25.7,10.3-36.9,10.3c-24,0-36-15.9-36-47.6
			c0-16.7,3.5-29.7,10.4-38.9c6.9-9.2,16.3-13.9,28-13.9c23.2,0,34.8,15.7,34.8,47.1C586.5,300.6,586.5,303.2,586.3,305.9z"/>
	</defs>
	<clipPath id="SVGID_8_">
		<use xlink:href="#SVGID_7_"  overflow="visible"/>
	</clipPath>
	<rect x="503.3" y="241" clip-path="url(#SVGID_8_)" width="93.3" height="120.4"/>
</g>
<g>
	<defs>
		<path id="SVGID_9_" d="M642.2,216.9l-2.9,12.2c-2.8-0.5-5.2-0.8-7.3-0.8c-5.5,0-8.2,4.2-8.2,12.6v12.2h11.5v14.9h-11.5v81.1h-23.9
			v-81.1h-8.8v-14.9h8.8v-10.5c0-20.7,7.6-31,22.8-31C629.8,211.8,636.3,213.5,642.2,216.9"/>
	</defs>
	<clipPath id="SVGID_10_">
		<use xlink:href="#SVGID_9_"  overflow="visible"/>
	</clipPath>
	<rect x="581.1" y="201.8" clip-path="url(#SVGID_10_)" width="71.1" height="157.6"/>
</g>
<g>
	<defs>
		<path id="SVGID_11_" d="M689.5,291.3v-3.6c0-14-3.8-21-11.5-21c-7.7,0-11.7,8.2-12.2,24.7H689.5z M713.4,305.9h-47.8v2.9
			c0,15.9,5.5,23.9,16.6,23.9c8,0,17.4-1.5,28.1-4.4l2.9,12.8c-13.4,6.9-25.7,10.3-36.9,10.3c-24,0-36-15.9-36-47.6
			c0-16.7,3.5-29.7,10.4-38.9c7-9.2,16.3-13.9,28-13.9c23.2,0,34.8,15.7,34.8,47.1C713.6,300.6,713.5,303.2,713.4,305.9z"/>
	</defs>
	<clipPath id="SVGID_12_">
		<use xlink:href="#SVGID_11_"  overflow="visible"/>
	</clipPath>
	<rect x="630.3" y="241" clip-path="url(#SVGID_12_)" width="93.3" height="120.4"/>
</g>
<g>
	<defs>
		<path id="SVGID_13_" d="M794.5,293.8c0,3.3-0.1,11.4-0.3,24.2c-0.2,12.8-0.3,23.2-0.3,31.3H770c0-7.4,0.1-16.9,0.3-28.4
			c0.2-11.5,0.3-18.7,0.3-21.3c0-11-0.7-18.7-2.1-23.2c-1.4-4-3.6-5.9-6.7-5.9c-3.8,0-8.2,1.9-13,5.7v73.1H725v-96h20.1l1.5,10.7
			c7.9-8.7,15.9-13,23.9-13c8.4,0,14.5,3.3,18.3,9.9C792.6,267.6,794.5,278.5,794.5,293.8"/>
	</defs>
	<clipPath id="SVGID_14_">
		<use xlink:href="#SVGID_13_"  overflow="visible"/>
	</clipPath>
	<rect x="715" y="241" clip-path="url(#SVGID_14_)" width="89.5" height="118.3"/>
</g>
<g>
	<defs>
		<path id="SVGID_15_" d="M865.7,320.8c0,8.5-2.9,15.7-8.8,21.4c-6.4,6-14.9,9-25.4,9c-9.3,0-18.1-2.5-26.4-7.5l2.5-13.4
			c6.4,2.7,12.5,4,18.4,4c9.1,0,13.6-3.5,13.6-10.5c0-4.3-2.9-8.2-8.8-11.7c-9.4-5.4-14.9-8.7-16.5-10.1c-5.9-5.5-8.8-12.9-8.8-22.4
			c0-8.5,2.8-15.4,8.4-20.7c5.6-5.2,13.1-7.8,22.4-7.8c8.3,0,16.4,1.7,24.3,5.2l-2.7,14c-5.7-1.9-10.9-2.9-15.5-2.9
			c-7.5,0-11.3,3.3-11.3,10c0,4.3,3,8.3,9,11.9c10,5.9,15.5,9.3,16.6,10.3C862.7,304.9,865.7,312,865.7,320.8"/>
	</defs>
	<clipPath id="SVGID_16_">
		<use xlink:href="#SVGID_15_"  overflow="visible"/>
	</clipPath>
	<rect x="795" y="241.2" clip-path="url(#SVGID_16_)" width="80.7" height="120.1"/>
</g>
<g>
	<defs>
		<path id="SVGID_17_" d="M920.4,291.3v-3.6c0-14-3.8-21-11.5-21c-7.6,0-11.7,8.2-12.2,24.7H920.4z M944.3,305.9h-47.8v2.9
			c0,15.9,5.5,23.9,16.7,23.9c8,0,17.4-1.5,28.1-4.4l2.9,12.8c-13.4,6.9-25.7,10.3-36.9,10.3c-24,0-36-15.9-36-47.6
			c0-16.7,3.5-29.7,10.4-38.9c7-9.2,16.3-13.9,28-13.9c23.2,0,34.8,15.7,34.8,47.1C944.5,300.6,944.4,303.2,944.3,305.9z"/>
	</defs>
	<clipPath id="SVGID_18_">
		<use xlink:href="#SVGID_17_"  overflow="visible"/>
	</clipPath>
	<rect x="861.2" y="241" clip-path="url(#SVGID_18_)" width="93.3" height="120.4"/>
</g>
<g>
	<defs>
		<path id="SVGID_19_" d="M533.4,49.9c4.1,50.1,6.6,93.2,7.5,129.1H525c-0.6-46.9-2.4-85.3-5.2-115.2h-0.2L488.3,179h-10.7l-30-115
			h-0.2c-2.4,25.9-4,64.2-4.8,115h-14.9c1-42.6,3.5-85.6,7.5-129.1h23.5l25.4,101.2h0.2l26-101.2H533.4"/>
	</defs>
	<clipPath id="SVGID_20_">
		<use xlink:href="#SVGID_19_"  overflow="visible"/>
	</clipPath>
	<rect x="417.6" y="39.9" clip-path="url(#SVGID_20_)" width="133.3" height="149.1"/>
</g>
<g>
	<defs>
		<path id="SVGID_21_" d="M594.6,94.3c-13.3,0-19.9,11.5-19.9,34.4c0,14.4,1.7,24.7,5,31c3.3,6.3,8.4,9.4,15.3,9.4
			c13,0,19.5-11.7,19.5-35.2C614.5,107.5,607.9,94.3,594.6,94.3z M595.6,82.8c22.7,0,34.1,15.5,34.1,46.5c0,17.1-3.3,30-9.9,38.8
			c-6.3,8.3-15.1,12.4-26.4,12.4c-22.3,0-33.5-15.9-33.5-47.8c0-16.8,3.4-29.5,10.1-38.1C576.1,86.8,584.6,82.8,595.6,82.8z"/>
	</defs>
	<clipPath id="SVGID_22_">
		<use xlink:href="#SVGID_21_"  overflow="visible"/>
	</clipPath>
	<rect x="549.8" y="72.8" clip-path="url(#SVGID_22_)" width="89.8" height="117.8"/>
</g>
<g>
	<defs>
		<path id="SVGID_23_" d="M664.5,105.4v61.8c3.8,1.8,7.6,2.7,11.3,2.7c6.9,0,12.5-3.3,16.9-9.9c4.4-6.6,6.6-15.8,6.6-27.6
			c0-11.7-1.6-21-4.7-27.6c-3.1-6.7-7.3-10-12.5-10C677.5,94.7,671.6,98.2,664.5,105.4z M650.1,43.4h14.3v50.1
			c8.2-7.1,15.8-10.7,22.8-10.7c7.9,0,14.4,4,19.4,12.1c5,8.1,7.6,18.9,7.6,32.4c0,16.2-3.7,29.1-11.1,38.7
			c-7.4,9.6-17.4,14.4-30,14.4c-8.2,0-15.8-0.9-23-2.7V43.4z"/>
	</defs>
	<clipPath id="SVGID_24_">
		<use xlink:href="#SVGID_23_"  overflow="visible"/>
	</clipPath>
	<rect x="640.1" y="33.4" clip-path="url(#SVGID_24_)" width="84.1" height="157.2"/>
</g>
<g>
	<defs>
		<path id="SVGID_25_" d="M735.1,84.2h14.3V179h-14.3V84.2z M750.6,51.1c0,3.5-0.6,5.8-1.7,7c-1.1,1.2-3.4,1.7-6.7,1.7
			c-3.7,0-6.1-0.8-7.3-2.3c-0.9-1.2-1.3-3.3-1.3-6.4c0-3.5,0.6-5.8,1.8-7c1.2-1.2,3.5-1.7,6.8-1.7c3.7,0,6,0.6,7,1.9
			C750.1,45.7,750.6,47.9,750.6,51.1z"/>
	</defs>
	<clipPath id="SVGID_26_">
		<use xlink:href="#SVGID_25_"  overflow="visible"/>
	</clipPath>
	<rect x="723.5" y="32.4" clip-path="url(#SVGID_26_)" width="37" height="156.6"/>
</g>
<g>
	<defs>
		<path id="SVGID_27_" d="M775.6,43.4H790v113.8c0,4.5,0.1,7.2,0.4,8.2c0.9,2.9,2.9,4.4,5.9,4.4h5.4l0.2,9c-3.8,1-7.8,1.5-11.9,1.5
			c-5.4,0-9-1.2-10.9-3.6c-2.3-2.7-3.4-7.9-3.4-15.7V43.4"/>
	</defs>
	<clipPath id="SVGID_28_">
		<use xlink:href="#SVGID_27_"  overflow="visible"/>
	</clipPath>
	<rect x="765.6" y="33.4" clip-path="url(#SVGID_28_)" width="46.2" height="157"/>
</g>
<g>
	<defs>
		<path id="SVGID_29_" d="M862.5,123.2v-4.4c0-17-5.5-25.4-16.5-25.4c-5.1,0-9.2,2.8-12.2,8.4c-3.1,5.6-4.7,12.8-5,21.4H862.5z
			 M876.6,133.5h-47.8v2.7c0,21.4,7.1,32.1,21.4,32.1c7.8,0,15.6-1.7,23.5-5.2l2.7,8.6c-10.3,5.9-20.4,8.8-30.2,8.8
			c-21.7,0-32.5-15.4-32.5-46.3c0-16.6,2.9-29.3,8.6-38.1C828,87.4,836.3,83,847,83c19.9,0,29.8,14.3,29.8,42.9
			C876.8,128.3,876.8,130.8,876.6,133.5z"/>
	</defs>
	<clipPath id="SVGID_30_">
		<use xlink:href="#SVGID_29_"  overflow="visible"/>
	</clipPath>
	<rect x="803.7" y="73" clip-path="url(#SVGID_30_)" width="83.1" height="117.6"/>
</g>
<g>
	<defs>
		<polyline id="SVGID_31_" points="970.6,338.5 978.6,338.5 978.6,340 975.4,340 975.4,352.8 973.8,352.8 973.8,340 970.6,340 
			970.6,338.5 		"/>
	</defs>
	<clipPath id="SVGID_32_">
		<use xlink:href="#SVGID_31_"  overflow="visible"/>
	</clipPath>
	<rect x="960.6" y="328.5" clip-path="url(#SVGID_32_)" width="28" height="34.3"/>
</g>
<g>
	<defs>
		<path id="SVGID_33_" d="M991.7,338.5c0.5,5.5,0.7,10.3,0.8,14.3h-1.8c-0.1-5.2-0.3-9.4-0.6-12.7h0l-3.5,12.7h-1.2l-3.3-12.7h0
			c-0.3,2.9-0.4,7.1-0.5,12.7H980c0.1-4.7,0.4-9.5,0.8-14.3h2.6l2.8,11.2h0l2.9-11.2H991.7"/>
	</defs>
	<clipPath id="SVGID_34_">
		<use xlink:href="#SVGID_33_"  overflow="visible"/>
	</clipPath>
	<rect x="970" y="328.5" clip-path="url(#SVGID_34_)" width="32.5" height="34.3"/>
</g>
</svg>
