<?xml version="1.0" encoding="utf-8"?>
<!-- Generator: Adobe Illustrator 21.0.2, SVG Export Plug-In . SVG Version: 6.00 Build 0)  -->
<svg version="1.1" id="Layer_1" xmlns="http://www.w3.org/2000/svg" xmlns:xlink="http://www.w3.org/1999/xlink" x="0px" y="0px"
	 viewBox="0 0 311.8 196.6" style="enable-background:new 0 0 311.8 196.6;" xml:space="preserve">
<style type="text/css">
	.st0{fill:#636466;}
	.st1{fill:#B4D672;}
	.st2{fill:#054E66;}
</style>
<g>
	<g>
		<path class="st0" d="M30.4,167.1c0,1.2-0.3,2.1-0.9,2.9c-0.6,0.7-1.6,1.2-2.8,1.4l4.1,6h-2.3l-3.7-5.9h-2.5v5.9h-1.8V163h5
			c1.6,0,2.9,0.4,3.7,1.2C29.9,164.9,30.4,165.9,30.4,167.1z M25.2,170.3c1.1,0,1.9-0.3,2.5-0.8c0.6-0.5,0.8-1.2,0.8-2.1
			c0-0.9-0.3-1.5-0.8-2.1c-0.5-0.5-1.3-0.8-2.3-0.8h-3.2v5.7H25.2z"/>
		<path class="st0" d="M35.7,163h8.9v1.6h-7v4.8h6.6v1.5h-6.6v4.9h7v1.6h-8.9V163z"/>
		<path class="st0" d="M53.2,163h2.2l4.8,14.4h-1.9l-1.2-3.7h-5.7l-1.2,3.7h-1.9L53.2,163z M51.9,172.3h4.8l-2.4-7.1L51.9,172.3z"/>
		<path class="st0" d="M66.3,175.8h6.4v1.6h-8.2V163h1.8V175.8z"/>
		<path class="st0" d="M85.2,163H94v1.6h-7v4.8h6.6v1.5H87v4.9h7v1.6h-8.9V163z"/>
		<path class="st0" d="M107.1,166.5c-0.3-1.4-1.3-2.1-3.1-2.1c-1,0-1.7,0.2-2.2,0.6c-0.5,0.4-0.8,0.9-0.8,1.5c0,0.6,0.2,1,0.5,1.3
			c0.3,0.3,0.8,0.6,1.6,0.8l3,1c1,0.4,1.8,0.8,2.4,1.4c0.6,0.6,0.9,1.5,0.9,2.6s-0.5,2-1.4,2.8c-0.9,0.8-2.2,1.1-3.8,1.1
			c-1.6,0-2.9-0.4-3.9-1.2c-1-0.8-1.5-1.9-1.6-3.4h1.8c0,0.9,0.3,1.7,1,2.2c0.7,0.5,1.5,0.8,2.6,0.8s1.9-0.2,2.5-0.7
			c0.6-0.5,0.9-1,0.9-1.6c0-0.6-0.2-1.1-0.6-1.5c-0.4-0.4-0.9-0.7-1.7-0.9l-2.5-0.9c-1.2-0.4-2.1-0.9-2.7-1.4
			c-0.6-0.5-0.9-1.4-0.9-2.4s0.4-1.9,1.3-2.7c0.9-0.7,2.1-1.1,3.6-1.1c1.5,0,2.7,0.3,3.5,1c0.8,0.7,1.3,1.6,1.4,2.7H107.1z"/>
		<path class="st0" d="M112,163h11.2v1.6h-4.7v12.8h-1.8v-12.8H112V163z"/>
		<path class="st0" d="M129.8,163h2.2l4.8,14.4h-1.9l-1.2-3.7H128l-1.2,3.7h-1.9L129.8,163z M128.4,172.3h4.8l-2.4-7.1L128.4,172.3z
			"/>
		<path class="st0" d="M138,163h11.2v1.6h-4.7v12.8h-1.8v-12.8H138V163z"/>
		<path class="st0" d="M153,163h8.9v1.6h-7v4.8h6.6v1.5h-6.6v4.9h7v1.6H153V163z"/>
		<path class="st0" d="M183.5,166.5c-0.3-1.4-1.3-2.1-3.1-2.1c-1,0-1.7,0.2-2.2,0.6c-0.5,0.4-0.8,0.9-0.8,1.5c0,0.6,0.2,1,0.5,1.3
			c0.3,0.3,0.8,0.6,1.6,0.8l3,1c1,0.4,1.8,0.8,2.4,1.4c0.6,0.6,0.9,1.5,0.9,2.6s-0.5,2-1.4,2.8c-0.9,0.8-2.2,1.1-3.8,1.1
			c-1.6,0-2.9-0.4-3.9-1.2c-1-0.8-1.5-1.9-1.6-3.4h1.8c0,0.9,0.3,1.7,1,2.2c0.7,0.5,1.5,0.8,2.6,0.8c1,0,1.9-0.2,2.5-0.7
			s0.9-1,0.9-1.6c0-0.6-0.2-1.1-0.6-1.5c-0.4-0.4-0.9-0.7-1.7-0.9l-2.5-0.9c-1.2-0.4-2.1-0.9-2.7-1.4c-0.6-0.5-0.9-1.4-0.9-2.4
			s0.4-1.9,1.3-2.7c0.9-0.7,2.1-1.1,3.6-1.1c1.5,0,2.7,0.3,3.5,1c0.8,0.7,1.3,1.6,1.4,2.7H183.5z"/>
		<path class="st0" d="M195.7,162.7c1.9,0,3.4,0.6,4.5,1.9c1.2,1.3,1.7,3.1,1.7,5.6c0,2.4-0.6,4.3-1.7,5.5c-1.1,1.3-2.7,1.9-4.5,1.9
			s-3.4-0.6-4.5-1.9c-1.1-1.3-1.7-3.1-1.7-5.5c0-2.4,0.6-4.3,1.7-5.5C192.3,163.4,193.8,162.7,195.7,162.7z M195.7,164.4
			c-1.3,0-2.4,0.5-3.2,1.5c-0.8,1-1.2,2.5-1.2,4.3c0,1.9,0.4,3.3,1.2,4.3c0.8,1,1.8,1.5,3.2,1.5c1.3,0,2.4-0.5,3.2-1.5
			c0.8-1,1.2-2.4,1.2-4.3c0-1.9-0.4-3.3-1.2-4.3S197,164.4,195.7,164.4z"/>
		<path class="st0" d="M206.3,163h8.7v1.6h-6.9v4.8h6.4v1.6h-6.4v6.5h-1.8V163z"/>
		<path class="st0" d="M217.9,163h11.2v1.6h-4.7v12.8h-1.8v-12.8h-4.7V163z"/>
		<path class="st0" d="M233.4,163l3.5,12l3.5-10.5h1.2l3.5,10.5l4-12h2l-5.1,14.4h-1.9l-3.1-9.2l-3.2,9.2h-1.9l-4.6-14.4H233.4z"/>
		<path class="st0" d="M257.7,163h2.2l4.8,14.4h-1.9l-1.2-3.7h-5.7l-1.2,3.7h-1.9L257.7,163z M256.4,172.3h4.8l-2.4-7.1L256.4,172.3
			z"/>
		<path class="st0" d="M278.4,167.1c0,1.2-0.3,2.1-0.9,2.9c-0.6,0.7-1.6,1.2-2.8,1.4l4.1,6h-2.3l-3.7-5.9h-2.5v5.9h-1.8V163h5
			c1.6,0,2.9,0.4,3.7,1.2C278,164.9,278.4,165.9,278.4,167.1z M273.3,170.3c1.1,0,1.9-0.3,2.5-0.8c0.6-0.5,0.8-1.2,0.8-2.1
			c0-0.9-0.3-1.5-0.8-2.1c-0.5-0.5-1.3-0.8-2.3-0.8h-3.2v5.7H273.3z"/>
		<path class="st0" d="M282.9,163h8.9v1.6h-7v4.8h6.6v1.5h-6.6v4.9h7v1.6h-8.9V163z"/>
	</g>
	<g>
		<path class="st1" d="M242.3,43.6c-15.8,0-28.8,6.7-37.2,17.5l-0.1-0.1c-2.8-3.6-6.2-6.8-10-9.3v91.2h20.3h0.1V91.3
			c0-16.4,10.6-28.6,27-28.6c9.6,0,17.2,4.2,21.8,11V49C258,45.5,250.6,43.6,242.3,43.6z"/>
	</g>
	<g>
		<g>
			<path class="st2" d="M189.4,92v50.8h-20.5V91.3c0-16.4-10.6-28.6-27-28.6c-16.4,0-27,12.2-27,28.6v51.5H94.7V91.3
				c0-16.4-10.6-28.6-27-28.6c-9.7,0-17.3,3.8-22,10.7l0,0c-3.3,4.8-5.1,10.9-5.1,17.6v51.8H20.3V51.4c3.8,2.6,6.7,5.7,9.5,9.3
				l0.3,0.4c8.4-10.8,21.7-17.8,37.5-17.8c8.3,0,15.6,2.1,21.8,5.6l0,0c6.4,3.6,11.6,8.8,15.3,15.2c0,0,0.1,0.1,0.1,0.2
				c0-0.1,0.1-0.1,0.1-0.2l0,0c7.2-12.6,20.2-20.6,37-20.6C169.9,43.6,189.4,64.6,189.4,92z"/>
		</g>
	</g>
	<circle class="st1" cx="280.9" cy="32.8" r="10.8"/>
	<path class="st2" d="M270.2,74.4V50.9c3.7,2.5,21.4,13.6,21.4,31.7l0.1,7.7l-0.1,52.5c-5.3-2.5-8.6-5.6-11.4-9.1
		c0,0-0.1-0.2-0.1-0.1c-0.4-0.5-0.7-1-1.1-1.5c-1.9-2.6-3.5-5.5-4.8-8.5c-0.3-0.6-0.5-1.2-0.7-1.8c-0.2-0.6-0.5-1.2-0.7-1.8
		c-0.6-1.9-1.1-3.8-1.6-5.8c-0.7-3.4-1.1-7-1.1-10.7L270.2,74.4z"/>
</g>
</svg>
