<?xml version="1.0" encoding="utf-8"?>
<!-- Generator: Adobe Illustrator 18.0.0, SVG Export Plug-In . SVG Version: 6.00 Build 0)  -->
<!DOCTYPE svg PUBLIC "-//W3C//DTD SVG 1.1//EN" "http://www.w3.org/Graphics/SVG/1.1/DTD/svg11.dtd">
<svg version="1.1" id="Layer_1" xmlns="http://www.w3.org/2000/svg" xmlns:xlink="http://www.w3.org/1999/xlink" x="0px" y="0px"
	 viewBox="0 0 366 174" enable-background="new 0 0 366 174" xml:space="preserve">
<g>
	<g>
		<path d="M205.7,18.9c2.2,0,4.3,0,6.5,0c2.2,0,3.3,1.7,2.5,3.7c-0.9,2.2-0.4,3.9,1.2,5.5C227.9,40,239.8,52,251.7,63.9
			c4.2,4.2,5.3,10.2,3,15.7c-2.2,5.4-7.3,8.8-13.1,8.8c-3.9,0-7.7,0-11.6,0c-2.6,0-3.6-1.6-2.6-4.1c0.8-2,0.3-3.6-1.2-5.1
			c-3.9-3.9-7.9-7.9-11.9-11.8c-8.1-8.1-16.4-16.2-24.4-24.5c-4.2-4.4-5.1-9.7-2.7-15.3c2.3-5.6,6.7-8.5,12.8-8.8
			C201.9,18.8,203.8,18.9,205.7,18.9z M230,85.6c4.2,0,8.3,0.2,12.4,0c5-0.3,8.3-3.1,10-7.7c1.7-4.6,0.7-8.8-2.9-12.3
			c-11.9-11.9-23.8-23.7-35.6-35.6c-1.8-1.8-2.5-3.9-2.2-6.4c0.1-0.6,0.2-1.2,0.3-1.9c-3.8,0-7.5,0-11.2,0c-5,0-9.1,2.7-11,7.2
			c-1.8,4.4-0.8,9.2,2.7,12.7c11.7,11.7,23.4,23.4,35.2,35.1C230.2,79.1,231.2,81.9,230,85.6z"/>
		<path d="M110.8,38.2c0-2.6-0.3-5.3,0.1-7.8c0.8-5.7,4.2-9.5,9.6-11.3c5.4-1.7,10.4-0.7,14.5,3.4c10.4,10.4,20.8,20.8,31.2,31.2
			c1.5,1.5,3,3,4.5,4.5c1.6,1.6,3.4,2.2,5.7,1.2c1.7-0.7,3.6,0.3,3.6,2.1c0,4.9,0.3,9.9-0.3,14.7c-0.6,5.6-4.2,9.3-9.5,11.1
			c-5.4,1.8-10.5,0.7-14.6-3.4C143.7,72,131.8,60,119.9,48.1c-1.5-1.5-3.9-2.3-5.9-1.2c-1.6,0.9-3.4-0.4-3.4-2.2c0-2.2,0-4.3,0-6.5
			C110.7,38.2,110.7,38.2,110.8,38.2z M177,62.2c-0.1,0-0.3,0.1-0.5,0.1c-3.2,0.9-5.8,0-8.1-2.4c-1.1-1.2-2.3-2.4-3.4-3.5
			c-10.7-10.7-21.5-21.5-32.2-32.2c-3.1-3.1-8-4-12.2-2.3c-4.3,1.7-7.1,5.9-7.2,10.3c0,2.5-0.1,5-0.2,7.4c0,1.4,0,2.9,0,4.5
			c4.3-1.5,7.1,0.4,9.9,3.2c11.4,11.6,23,23.1,34.5,34.6c3.3,3.3,7.4,4.1,11.8,2.6c4.3-1.5,7.2-4.7,7.6-9.4
			c0.4-4.2,0.1-8.5,0.1-12.7C177.2,62.4,177.1,62.4,177,62.2z"/>
		<path d="M161,18.4c4.8,0,9.6-0.1,14.4,0c3,0.1,5,2.2,5.1,5.2c0,9.4,0,18.8,0,28.2c0,2.3-1.2,4.1-3.4,4.9c-2.1,0.8-4.1,0.3-5.7-1.3
			c-9.1-9.2-18.3-18.3-27.4-27.4c-1.2-1.2-2.2-2.6-2.2-4.4c0-3,2.2-5.4,5.2-5.4c4.7,0,9.4,0,14.1,0C161,18.3,161,18.3,161,18.4z
			 M177.7,37.6c0-4.3,0-8.7,0-13c0-2.7-0.7-3.5-3.4-3.5c-8.9-0.1-17.9-0.1-26.8-0.1c-1.2,0-2.2,0.4-2.7,1.5c-0.5,1.1-0.1,2.2,0.7,3
			c0.3,0.3,0.6,0.6,0.9,0.9c8.9,8.9,17.7,17.7,26.6,26.6c0.9,0.9,1.8,1.7,3.1,1.1c1.3-0.6,1.7-1.7,1.7-3
			C177.7,46.6,177.7,42.1,177.7,37.6z"/>
		<path d="M185.8,69.4c0-4.6,0-9.1,0-13.7c0-2.6,1.1-4.5,3.2-5.3c2.3-0.9,4.3-0.3,6.1,1.4c9.2,9.2,18.4,18.4,27.7,27.6
			c1.9,1.9,2.4,4,1.5,6.1c-1,2.3-2.9,3.3-5.3,3.3c-9.1,0-18.2,0-27.2,0c-3.7,0-5.8-2.1-5.8-5.8c0-4.6,0-9.1,0-13.7
			C185.8,69.4,185.8,69.4,185.8,69.4z M205.3,86.1c4.4,0,8.9,0,13.3,0c0.7,0,1.5-0.1,2-0.4c1.6-0.9,1.7-2.7,0.2-4.2
			c-9.2-9.2-18.4-18.4-27.7-27.6c-0.2-0.2-0.4-0.4-0.6-0.5c-0.8-0.6-1.8-0.9-2.6-0.2c-0.6,0.5-1.4,1.4-1.4,2.2
			c-0.1,9.3,0,18.5,0.1,27.8c0,2.3,1,3.1,3.2,3.1C196.3,86.1,200.8,86.1,205.3,86.1z"/>
		<path d="M110.1,69c0-4.6,0-9.2,0-13.8c0-2.5,1.2-4.5,3.3-5.3c2.2-0.8,4.2-0.3,5.9,1.4c9.2,9.2,18.4,18.4,27.6,27.7
			c2,2,2.5,4.1,1.5,6.3c-1,2.3-2.9,3.2-5.4,3.2c-9.1-0.1-18.2-0.1-27.2-0.1c-3.4,0-5.6-2.2-5.7-5.7C110.1,78.1,110.1,73.5,110.1,69z
			 M129.3,85.5c0,0.1,0,0.1,0,0.2c4.6,0,9.1,0,13.7,0c1.3,0,2.4-0.4,2.9-1.7c0.5-1.2-0.1-2.2-0.9-3.1c-9.2-9.2-18.4-18.4-27.6-27.7
			c-0.8-0.8-1.7-1.3-2.8-0.9c-1.2,0.5-1.7,1.4-1.7,2.7c0,9.2,0,18.3,0,27.5c0,2,1,2.9,3,2.9C120.3,85.5,124.8,85.5,129.3,85.5z"/>
		<path d="M236.4,18.4c4.6,0,9.1,0,13.7,0c3.6,0,5.7,2.1,5.7,5.7c0,9.1,0,18.2,0.1,27.2c0,2.5-0.9,4.3-3.2,5.3
			c-2.4,1-4.4,0.4-6.2-1.4c-9.3-9.3-18.7-18.7-28-28c-1.6-1.6-1.9-3.6-1.1-5.6c0.9-2.1,2.5-3.2,4.8-3.2
			C227,18.4,231.7,18.4,236.4,18.4z M253.2,37.9C253.2,37.9,253.1,37.9,253.2,37.9c0-4.6,0-9.1,0-13.7c0-1.9-1-3-2.8-3
			c-9.3,0-18.5,0-27.8,0c-1.1,0-2.1,0.5-2.5,1.6c-0.4,1.1-0.1,2,0.7,2.9c2.3,2.2,4.5,4.4,6.7,6.7c7,7,13.9,13.9,20.9,20.9
			c0.9,0.9,1.9,1.6,3.3,1.1c1.4-0.6,1.6-1.7,1.6-3C253.1,46.7,253.2,42.3,253.2,37.9z"/>
	</g>
	<g>
		<path d="M228.2,119.3c0.2-0.6,0.4-1,0.6-1.4c1.6-4.2,3.2-8.3,4.8-12.5c0.3-0.9,0.8-1.2,1.7-1.1c1.5,0.1,3,0,4.5,0
			c0,7.2,0,14.4,0,21.6c-1.2,0-2.4,0-3.6,0c0-5.8,0-11.6,0-17.4c-0.1,0-0.1,0-0.2-0.1c-0.1,0.3-0.3,0.7-0.4,1
			c-1.9,5.1-3.7,10.2-5.5,15.3c-0.3,0.9-0.7,1.4-1.7,1.2c-0.2,0-0.4,0-0.6,0c-0.7,0.1-1-0.2-1.2-0.8c-1.9-5.2-3.7-10.3-5.6-15.4
			c-0.1-0.4-0.3-0.8-0.6-1.2c0,5.8,0,11.5,0,17.4c-1.3,0-2.5,0-3.7,0c0-7.2,0-14.3,0-21.6c1.9,0,3.7,0,5.6,0c0.2,0,0.5,0.5,0.6,0.8
			c1.7,4.4,3.3,8.8,5,13.1C227.9,118.6,228,118.9,228.2,119.3z"/>
		<path d="M183.2,134.2c-54.6,0-109.1,0-163.7,0c-0.5,0-1.2,0.4-1.5-0.4c0.5-0.1,1-0.4,1.5-0.4c109.1,0,218.3,0,327.4,0
			c0.3,0,0.7,0,1,0c0.2,0,0.3,0.2,0.5,0.4c-0.1,0.1-0.3,0.4-0.4,0.4c-0.4,0.1-0.8,0-1.2,0C292.2,134.2,237.7,134.2,183.2,134.2z"/>
		<path d="M18.6,104.3c1.6,0,3.1,0,4.6,0c0.3,0,0.7,0.4,0.9,0.7c3.2,4.8,6.3,9.6,9.4,14.4c0.1,0.2,0.3,0.4,0.6,0.8
			c0-5.5,0-10.7,0-15.9c1.4,0,2.6,0,3.9,0c0,7.1,0,14.3,0,21.6c-1.5,0-3.1,0-4.7,0c-0.2,0-0.5-0.5-0.7-0.7
			c-3.2-4.9-6.3-9.8-9.5-14.7c-0.2-0.3-0.4-0.6-0.7-1c0,5.6,0,11,0,16.4c-1.3,0-2.5,0-3.9,0C18.6,118.8,18.6,111.6,18.6,104.3z"/>
		<path d="M138.3,126c-1.5,0-3,0-4.4,0c-0.3,0-0.7-0.4-0.9-0.7c-3.2-4.9-6.3-9.8-9.5-14.7c-0.2-0.3-0.4-0.5-0.7-1c0,5.6,0,11,0,16.5
			c-1.3,0-2.5,0-3.8,0c0-7.1,0-14.3,0-21.6c1.6,0,3.2,0,4.8,0c0.3,0,0.6,0.5,0.8,0.8c3.1,4.7,6.1,9.4,9.2,14.1
			c0.2,0.3,0.4,0.6,0.8,0.8c0-5.2,0-10.4,0-15.7c1.3,0,2.5,0,3.8,0C138.3,111.6,138.3,118.7,138.3,126z"/>
		<path d="M65.3,115c0,6.8-4.7,11.5-11.6,11.5c-6.7,0-11.4-4.7-11.4-11.3c0-6.9,4.7-11.5,11.8-11.5C60.8,103.8,65.3,108.3,65.3,115z
			 M53.8,107.3c-4.4,0-7.4,3.3-7.4,7.9c0,4.6,3.1,7.8,7.4,7.9c4.4,0,7.5-3.3,7.5-8C61.3,110.5,58.1,107.3,53.8,107.3z"/>
		<path d="M163,106.5c-1,1-1.9,1.9-2.8,2.8c-0.3-0.2-0.6-0.4-0.9-0.6c-2.8-1.7-5.7-2.1-8.5-0.5c-2.9,1.6-3.9,4.4-3.7,7.6
			c0.2,3,1.6,5.5,4.5,6.7c2.5,1,4.9,0.7,7.3-0.3c0.2-0.1,0.6-0.4,0.6-0.7c0.1-1.5,0-3,0-4.7c-1.5,0-2.9,0-4.4,0c0-1.2,0-2.3,0-3.5
			c2.7,0,5.4,0,8.2,0c0,1.7,0,3.3,0,5c0,1.8,0,3.6,0,5.4c0,0.3-0.2,0.8-0.5,0.9c-4.2,1.9-8.6,2.7-13.1,1.1c-4.3-1.6-6.5-4.9-6.8-9.4
			c-0.3-4.4,1-8.3,4.9-10.8c4-2.6,10.9-2.3,14.5,0.5C162.6,106.2,162.8,106.3,163,106.5z"/>
		<path d="M325,126c-1.6,0-3,0-4.3,0c-0.3,0-0.6-0.4-0.7-0.7c-1.4-2.5-2.8-5-4.1-7.5c-0.4-0.8-0.8-1.1-1.7-1c-0.5,0.1-1,0-1.7,0
			c0,3.1,0,6.1,0,9.1c-1.3,0-2.5,0-3.8,0c0-7.2,0-14.3,0-21.4c0,0,0.1-0.1,0.1-0.1c3.4,0,6.8-0.1,10.1,0.2c4.1,0.5,6.1,3.6,5.1,7.6
			c-0.5,2.1-1.8,3.4-3.8,4c-0.3,0.1-0.6,0.2-0.9,0.3C321.2,119.6,323.1,122.7,325,126z M312.6,113.4c0.2,0,0.3,0.1,0.4,0.1
			c1.1,0,2.2,0.1,3.4,0c0.7,0,1.5-0.2,2.2-0.4c1.1-0.4,1.7-1.3,1.7-2.5c0-1.2-0.6-2.1-1.7-2.5c-2-0.6-4-0.3-5.9-0.3
			C312.6,109.7,312.6,111.5,312.6,113.4z"/>
		<path d="M182.9,112.8c0-2.8,0-5.6,0-8.4c1.3,0,2.5,0,3.8,0c0,7.2,0,14.3,0,21.5c-1.2,0-2.5,0-3.8,0c0-3.2,0-6.2,0-9.4
			c-3.4,0-6.7,0-10.2,0c0,3.1,0,6.2,0,9.4c-1.3,0-2.5,0-3.8,0c0-7.2,0-14.3,0-21.5c1.2,0,2.4,0,3.7,0c0,2.8,0,5.6,0,8.4
			C176.1,112.8,179.4,112.8,182.9,112.8z"/>
		<path d="M329.9,104.4c1.3,0,2.4,0,3.7,0c0,3,0,6,0,9.2c1-1,1.9-1.8,2.7-2.7c2-2,4-4.1,6-6.1c0.2-0.2,0.6-0.5,0.9-0.5
			c1.5,0,3,0,4.3,0c-3.2,3.2-6.4,6.5-9.7,9.9c3.6,3.9,7.2,7.8,10.9,11.7c-1.9,0-3.6,0-5.2,0c-0.3,0-0.5-0.3-0.7-0.6
			c-2.7-3-5.4-6.1-8.1-9.1c-0.3-0.3-0.5-0.6-1-1c0,3.7,0,7.2,0,10.7c-1.3,0-2.5,0-3.8,0C329.9,118.8,329.9,111.6,329.9,104.4z"/>
		<path d="M212.2,126c-1.4,0-2.6,0-3.8,0c-0.3,0-0.7-0.3-0.8-0.6c-0.5-1.2-1-2.4-1.5-3.6c-0.2-0.5-0.5-0.8-1.1-0.8
			c-2.6,0-5.2,0-7.8,0c-0.6,0-0.9,0.2-1.1,0.7c-0.4,1.2-0.9,2.4-1.4,3.6c-0.1,0.3-0.6,0.6-0.9,0.6c-1.2,0.1-2.3,0-3.6,0
			c0.1-0.3,0.1-0.5,0.2-0.8c2.9-6.7,5.8-13.4,8.7-20.2c0.2-0.6,0.5-0.8,1.2-0.8c2.5,0,2.5,0,3.5,2.3c2.6,6.1,5.2,12.1,7.8,18.2
			C211.9,125.1,212,125.5,212.2,126z M204.4,117.7c-1.1-2.9-2.1-5.7-3.3-8.7c-1.2,3.1-2.2,5.8-3.3,8.7
			C200,117.7,202.1,117.7,204.4,117.7z"/>
		<path d="M258,123.8c0.9-1.1,1.8-2,2.6-3.1c1.6,1.9,3.5,2.7,5.8,2c1.2-0.3,2.1-1.1,2.3-2.4c0.2-1.3-0.4-2.2-1.9-2.8
			c-1.5-0.7-3.1-1.1-4.6-1.7c-3.3-1.4-4.6-4.4-3.4-7.6c0.4-1.3,1.3-2.2,2.4-3c2.9-2,7.6-1.9,10.5,0c0.3,0.2,0.6,0.5,1,0.8
			c-0.9,1-1.8,1.9-2.8,2.9c-1.5-1.6-3.3-2-5.4-1.4c-1.1,0.3-1.9,1-2,2.2c-0.1,1.2,0.3,2,1.6,2.6c1,0.5,2.1,0.8,3.1,1.2
			c0.6,0.2,1.2,0.4,1.8,0.7c2.4,1,3.7,2.7,3.8,5.3c0,2.5-0.8,4.5-3,5.9C266.2,127.5,260.6,126.8,258,123.8z"/>
		<path d="M278.1,104.2c3.3,0.1,6.6,0,9.9,0.4c4.5,0.5,6.7,4.9,4.8,9.1c-1,2.1-2.9,2.9-5.1,3.1c-1.9,0.2-3.7,0.2-5.8,0.3
			c0,1.4,0,2.9,0,4.4c0,1.4,0,2.9,0,4.4c-1.3,0-2.5,0-3.8,0C278.1,118.8,278.1,111.6,278.1,104.2z M282,113.8
			c1.8-0.1,3.4-0.1,5.1-0.4c1.5-0.2,2.3-1.3,2.3-2.7c0-1.4-0.7-2.5-2.2-2.8c-1.7-0.3-3.4-0.3-5.2-0.4C282,109.7,282,111.6,282,113.8
			z"/>
		<path d="M86.9,107.8c0-1.2,0-2.3,0-3.4c5.7,0,11.3,0,17,0c0,1.1,0,2.2,0,3.4c-2.2,0-4.3,0-6.6,0c0,6.1,0,12.1,0,18.2
			c-1.3,0-2.5,0-3.9,0c0-6,0-12,0-18.1C91.3,107.8,89.2,107.8,86.9,107.8z"/>
		<path d="M84.5,104.4c0,1.1,0,2.2,0,3.4c-2.2,0-4.3,0-6.6,0c0,6.1,0,12.1,0,18.2c-1.3,0-2.5,0-3.9,0c0-6,0-12,0-18.2
			c-2.2,0-4.4,0-6.6,0c0-1.2,0-2.3,0-3.4C73.2,104.4,78.8,104.4,84.5,104.4z"/>
		<path d="M334.5,144.2c0,3.7,0,7.3,0,11.1c-0.7,0-1.3,0-2,0c0-4.9,0-9.7,0-14.7c0.9,0,1.8-0.1,2.7,0c0.3,0,0.6,0.5,0.7,0.8
			c1.3,3,2.5,6,3.8,8.9c0.1,0.3,0.3,0.7,0.5,1.1c1-2.4,1.9-4.6,2.8-6.8c0.5-1.1,1-2.2,1.4-3.4c0.2-0.6,0.5-0.8,1.2-0.8
			c0.7,0,1.4,0,2.2,0c0,4.9,0,9.8,0,14.7c-0.7,0-1.3,0-2,0c0-3.7,0-7.4,0-11c-0.1,0-0.1,0-0.2-0.1c-0.1,0.2-0.2,0.4-0.3,0.6
			c-1.3,3.2-2.6,6.4-3.9,9.6c-0.2,0.5-0.4,1-1.1,1c-0.7,0-0.9-0.4-1.1-0.9c-1.3-3.2-2.6-6.4-3.9-9.5c-0.1-0.3-0.2-0.5-0.3-0.8
			C334.6,144.2,334.6,144.2,334.5,144.2z"/>
		<path d="M291.2,140.6c0.8,0,1.4,0,2.1,0c0,4.9,0,9.7,0,14.7c-0.8,0-1.6,0.1-2.3,0c-0.3,0-0.6-0.4-0.8-0.7
			c-2.3-3.4-4.6-6.7-6.8-10.1c-0.2-0.3-0.4-0.5-0.7-1c0,4.1,0,7.9,0,11.7c-0.8,0-1.4,0-2.1,0c0-4.9,0-9.7,0-14.7
			c0.8,0,1.6-0.1,2.3,0c0.3,0,0.6,0.4,0.8,0.7c2.2,3.3,4.4,6.6,6.6,9.9c0.2,0.3,0.4,0.6,0.8,1.2
			C291.2,148.3,291.2,144.5,291.2,140.6z"/>
		<path d="M119.3,152c0-3.8,0-7.5,0-11.3c0.7,0,1.4,0,2.1,0c0,4.9,0,9.8,0,14.7c-0.8,0-1.5,0.1-2.2,0c-0.3,0-0.6-0.3-0.8-0.6
			c-2.4-3.4-4.7-6.9-7-10.3c-0.1-0.2-0.3-0.4-0.6-0.8c0,4,0,7.8,0,11.7c-0.8,0-1.4,0-2.1,0c0-4.9,0-9.7,0-14.7c0.8,0,1.6-0.1,2.3,0
			c0.3,0,0.6,0.4,0.8,0.6c2.2,3.2,4.3,6.4,6.5,9.6c0.3,0.4,0.5,0.8,0.8,1.2C119.1,152.1,119.2,152,119.3,152z"/>
		<path d="M182.6,152c0-3.7,0-7.5,0-11.3c0.7,0,1.3,0,2,0c0,4.8,0,9.7,0,14.7c-0.8,0-1.5,0.1-2.3,0c-0.3,0-0.5-0.4-0.7-0.6
			c-2.3-3.4-4.6-6.8-6.9-10.2c-0.2-0.2-0.3-0.5-0.7-0.9c0,4.1,0,7.9,0,11.7c-0.8,0-1.4,0-2.1,0c0-4.9,0-9.7,0-14.7
			c0.8,0,1.6-0.1,2.3,0c0.3,0,0.6,0.4,0.8,0.7c2.2,3.3,4.4,6.6,6.6,9.9c0.2,0.3,0.5,0.6,0.7,0.9C182.5,152.1,182.5,152,182.6,152z"
			/>
		<path d="M188.2,140.6c0.8,0,1.6-0.1,2.3,0c0.3,0,0.7,0.4,0.9,0.7c2.2,3.3,4.4,6.6,6.6,9.9c0.2,0.3,0.4,0.6,0.8,1.2
			c0-4.1,0-7.9,0-11.7c0.8,0,1.4,0,2.1,0c0,4.9,0,9.7,0,14.7c-0.8,0-1.5,0-2.3,0c-0.3,0-0.5-0.3-0.7-0.6c-2.2-3.2-4.4-6.5-6.6-9.8
			c-0.3-0.4-0.6-0.8-1-1.4c0,4.1,0,7.9,0,11.8c-0.8,0-1.4,0-2.1,0C188.2,150.4,188.2,145.6,188.2,140.6z"/>
		<path d="M270.1,140.2c4.4,0,7.7,3.3,7.7,7.7c0,4.5-3.2,7.8-7.6,7.8c-4.5,0-7.8-3.2-7.8-7.7C262.4,143.5,265.7,140.2,270.1,140.2z
			 M270.2,142.2c-3.1,0-5.4,2.4-5.5,5.7c0,3.3,2.3,5.8,5.5,5.8c3.1,0,5.4-2.5,5.4-5.8C275.6,144.7,273.3,142.2,270.2,142.2z"/>
		<path d="M211.3,140.2c4.4,0,7.7,3.3,7.8,7.7c0,4.4-3.2,7.8-7.5,7.8c-4.5,0-7.9-3.2-7.9-7.6C203.6,143.5,206.8,140.2,211.3,140.2z
			 M216.8,148c0-3.3-2.3-5.7-5.4-5.7c-3.1,0-5.4,2.4-5.5,5.7c0,3.3,2.4,5.8,5.5,5.8C214.4,153.7,216.8,151.3,216.8,148z"/>
		<path d="M71.9,147.5c2.1,1,2.9,2.4,2.7,4.2c-0.2,1.9-1.7,3.3-4,3.5c-2.1,0.2-4.1,0-6.3,0c0-4.9,0-9.7,0-14.5c2.3,0,4.5-0.1,6.7,0
			c1.5,0.1,2.6,1.2,2.8,2.8C74.2,145.3,73.5,146.6,71.9,147.5z M66.5,153.6c1.5-0.1,2.8-0.1,4.2-0.4c1.1-0.2,1.7-1.1,1.7-2.2
			c0-1.1-0.5-2-1.6-2.2c-1.4-0.3-2.8-0.2-4.3-0.4c0,1.6,0,3,0,4.3C66.4,153,66.5,153.2,66.5,153.6z M66.5,146.7
			c1.3-0.1,2.5,0,3.7-0.2c1.1-0.2,1.6-0.9,1.5-2c0-1-0.6-1.8-1.6-1.9c-1.2-0.1-2.3,0-3.6,0C66.5,143.9,66.5,145.2,66.5,146.7z"/>
		<path d="M302.3,125.9c-1.3,0-2.5,0-3.8,0c0-7.2,0-14.3,0-21.5c1.2,0,2.5,0,3.8,0C302.3,111.5,302.3,118.7,302.3,125.9z"/>
		<path d="M112.2,126c-1.1,0-2,0-3,0c-0.2,0-0.4,0-0.7,0c0-7.2,0-14.4,0-21.6c1.3,0,2.5,0,3.8,0C112.2,111.5,112.2,118.7,112.2,126z
			"/>
		<path d="M326.3,148.8c1.4,2.2,2.7,4.3,4.1,6.6c-0.9,0-1.6,0.1-2.2,0c-0.3,0-0.6-0.3-0.8-0.6c-0.9-1.4-1.7-2.9-2.5-4.4
			c-0.9-1.6-0.9-1.6-2.9-1.3c0,2,0,4.1,0,6.3c-0.7,0-1.4,0-2.1,0c0-4.8,0-9.7,0-14.7c0.6,0,1.1,0,1.7,0c1.4,0,2.8,0,4.2,0
			c2.4,0.2,3.8,1.4,4,3.6c0.3,2-0.9,3.7-3.1,4.4C326.6,148.6,326.6,148.7,326.3,148.8z M322,147.1c1.4-0.1,2.7-0.1,4.1-0.3
			c1-0.2,1.5-1,1.5-2.1c0-1.1-0.5-1.9-1.5-2c-1.3-0.2-2.7-0.2-4-0.3C322,144.1,322,145.5,322,147.1z"/>
		<path d="M32.7,148.8c0,2.2,0,4.3,0,6.5c-0.7,0-1.4,0-2.1,0c0-4.9,0-9.7,0-14.7c0.7,0,1.3,0,2.1,0c0,2,0,3.9,0,5.9
			c2.5,0,4.9,0,7.4,0c0-1.9,0-3.9,0-5.9c0.7,0,1.4,0,2.1,0c0,4.8,0,9.7,0,14.6c-0.6,0-1.3,0-2.1,0c0-2.2,0-4.3,0-6.5
			C37.6,148.8,35.2,148.8,32.7,148.8z"/>
		<path d="M245.8,155.4c-0.7,0-1.3,0.1-1.9,0c-0.3,0-0.7-0.3-0.8-0.5c-0.4-0.8-0.6-1.7-1-2.5c-0.1-0.3-0.5-0.6-0.8-0.6
			c-1.9-0.1-3.8,0-5.6,0c-0.3,0-0.6,0.3-0.8,0.5c-0.3,0.6-0.6,1.3-0.8,2c-0.2,0.9-0.7,1.2-1.6,1c-0.4-0.1-0.8,0-1.3,0
			c0.2-0.4,0.3-0.7,0.4-1c1.9-4.3,3.8-8.6,5.7-13c0.3-0.7,0.7-0.8,1.4-0.8c0.7,0,1.1,0.2,1.3,0.8c1.8,4.4,3.7,8.7,5.6,13
			C245.6,154.7,245.7,155,245.8,155.4z M241.1,149.8c-0.9-2.1-1.7-4.1-2.6-6.4c-0.9,2.2-1.8,4.3-2.6,6.4
			C237.6,149.8,239.3,149.8,241.1,149.8z"/>
		<path d="M127,148.8c0,1.6,0,3,0,4.5c2.6,0,5.1,0,7.7,0c0,0.7,0,1.3,0,2c-3.3,0-6.6,0-9.9,0c0-4.9,0-9.7,0-14.6c3.2,0,6.3,0,9.6,0
			c0,0.6,0,1.2,0,1.9c-2.5,0-4.9,0-7.4,0c0,1.4,0,2.8,0,4.2c2.3,0,4.5,0,6.8,0c0,0.7,0,1.3,0,2C131.6,148.8,129.4,148.8,127,148.8z"
			/>
		<path d="M55.3,140.7c0,0.6,0,1.2,0,1.9c-2.4,0-4.9,0-7.3,0c0,1.4,0,2.7,0,4.2c2.2,0,4.5,0,6.8,0c0,0.7,0,1.3,0,2
			c-2.3,0-4.5,0-6.8,0c0,1.5,0,3,0,4.5c2.6,0,5.1,0,7.7,0c0,0.7,0,1.3,0,2c-3.2,0-6.5,0-9.8,0c0-4.9,0-9.7,0-14.6
			C49,140.7,52.1,140.7,55.3,140.7z"/>
		<path d="M77,140.7c0.7,0,1.3,0,2.1,0c0,0.4,0,0.8,0,1.1c0,2.7,0,5.5,0,8.2c0.1,1.9,1.1,3.2,2.6,3.6c2.5,0.6,4.5-1,4.6-3.8
			c0.1-2.7,0-5.4,0-8c0-0.4,0-0.7,0-1.1c0.8,0,1.4,0,2.2,0c0,1.6,0,3.1,0,4.6c0,1.7,0.1,3.4,0,5.1c-0.3,4.5-5,6.9-8.8,4.6
			c-1.5-0.9-2.5-2.2-2.6-3.9C76.9,147.6,77,144.2,77,140.7z"/>
		<path d="M100.2,142c-0.5,0.5-1.1,1-1.7,1.5c-0.9-0.9-1.9-1.4-3.2-1.3c-1.2,0.1-2,0.8-2.2,1.8c-0.2,1,0.3,1.8,1.5,2.3
			c0.9,0.4,1.8,0.6,2.6,0.9c2.2,0.8,3,1.9,3,3.9c0,2-1.2,3.6-3.2,4.2c-1.8,0.6-3.7,0.4-5.4-0.5c-0.5-0.3-1-0.8-1.5-1.2
			c0.7-0.6,1.2-1.1,1.8-1.6c1.1,1.3,2.4,1.9,4.1,1.4c1.1-0.3,1.8-1.1,1.9-2.1c0.1-1-0.4-1.6-1.7-2.1c-0.9-0.3-1.8-0.6-2.6-0.9
			c-2.1-0.8-3.1-2.3-2.9-4.5c0.1-1.8,1.5-3.4,3.6-3.7C96.6,140,98.6,140.1,100.2,142z"/>
		<path d="M157.5,142c-0.6,0.5-1.1,1-1.7,1.5c-1.1-1.2-2.3-1.6-3.8-1.1c-0.9,0.3-1.5,0.9-1.6,1.8c-0.1,0.9,0.4,1.6,1.2,2
			c0.8,0.4,1.7,0.7,2.6,0.9c2.6,0.9,3.6,2.1,3.4,4.4c-0.2,2.2-1.8,3.8-4.3,4.1c-2.1,0.2-4.2-0.1-5.7-2c0.6-0.5,1.1-1,1.7-1.5
			c1.1,1.2,2.4,1.9,4,1.4c0.5-0.1,1-0.4,1.3-0.8c1-1,0.8-2.3-0.4-3c-1-0.5-2.1-0.8-3.1-1.2c-1.6-0.6-2.8-1.6-3-3.5
			c-0.2-2.1,0.7-3.7,2.7-4.5C153.2,139.7,156.1,140.2,157.5,142z"/>
		<path d="M144.5,143.5c-1.1-1.2-2.3-1.5-3.8-1.1c-0.9,0.3-1.5,0.9-1.6,1.8c-0.1,0.9,0.4,1.6,1.2,2c0.8,0.4,1.7,0.7,2.6,1
			c2.7,0.9,3.6,2.1,3.4,4.5c-0.2,2.2-1.9,3.8-4.3,4c-2.3,0.3-4.3-0.5-5.5-2.1c0.5-0.5,1.1-0.9,1.7-1.5c1.1,1.2,2.3,1.9,4,1.4
			c1.2-0.3,1.9-1.1,2-2.1c0.1-0.9-0.4-1.6-1.7-2.1c-0.8-0.3-1.7-0.6-2.5-0.9c-2.3-0.9-3.3-2.5-2.9-4.8c0.3-1.9,2-3.4,4.2-3.5
			c1.9-0.1,3.7,0,5.1,1.7C145.7,142.5,145.1,143,144.5,143.5z"/>
		<path d="M219.2,140.6c0.6,0,1.1,0,1.6,0c0.6-0.1,0.9,0.2,1.1,0.8c1.2,3.3,2.4,6.6,3.6,10c0.1,0.2,0.2,0.5,0.4,0.9
			c0.2-0.6,0.4-1,0.5-1.4c1.1-3,2.3-5.9,3.3-8.9c0.4-1.2,1-1.6,2.1-1.4c0.2,0,0.4,0,0.7,0.1c-0.1,0.4-0.2,0.7-0.3,0.9
			c-1.7,4.3-3.4,8.6-5.1,12.9c-0.3,0.8-0.7,0.9-1.5,0.9c-0.7,0-1-0.3-1.3-0.9c-1.6-4.3-3.3-8.5-4.9-12.7
			C219.5,141.4,219.4,141.1,219.2,140.6z"/>
		<path d="M302.9,140.7c3.1,0,6.1,0,9.2,0c0,0.6,0,1.2,0,1.9c-2.3,0-4.7,0-7.1,0c0,1.5,0,2.9,0,4.4c2.2,0,4.3,0,6.5,0
			c0,0.7,0,1.3,0,2c-2.2,0-4.3,0-6.6,0c0,2.1,0,4.2,0,6.3c-0.8,0-1.4,0-2.1,0C302.9,150.5,302.9,145.6,302.9,140.7z"/>
		<path d="M255.8,140.7c0,0.7,0,1.2,0,1.9c-1.5,0-3,0-4.6,0c0,4.3,0,8.5,0,12.7c-0.8,0-1.4,0-2.1,0c0-4.2,0-8.4,0-12.7
			c-1.6,0-3.1,0-4.7,0c0-0.7,0-1.3,0-1.9C248.2,140.7,251.9,140.7,255.8,140.7z"/>
		<path d="M24.1,142.6c0,4.4,0,8.5,0,12.7c-0.7,0-1.4,0-2.1,0c0-4.2,0-8.4,0-12.7c-1.6,0-3.1,0-4.7,0c0-0.7,0-1.3,0-1.9
			c3.8,0,7.6,0,11.4,0c0,0.6,0,1.2,0,1.9C27.2,142.6,25.7,142.6,24.1,142.6z"/>
		<path d="M103,140.7c0.7,0,1.3,0,2,0c0,4.9,0,9.7,0,14.6c-0.7,0-1.3,0-2,0C103,150.4,103,145.6,103,140.7z"/>
		<path d="M168.4,155.3c-0.7,0-1.3,0-2,0c0-4.9,0-9.7,0-14.7c0.7,0,1.3,0,2,0C168.4,145.5,168.4,150.4,168.4,155.3z"/>
		<path d="M259.7,155.3c-0.7,0-1.3,0-2,0c0-4.9,0-9.7,0-14.7c0.7,0,1.3,0,2,0C259.7,145.5,259.7,150.4,259.7,155.3z"/>
		<path d="M316.3,140.7c0,4.9,0,9.7,0,14.6c-0.7,0-1.3,0-2.1,0c0-0.4,0-0.7,0-1.1c0-4.1,0-8.2,0-12.3c0-1.4,0-1.4,1.3-1.3
			C315.8,140.6,316,140.6,316.3,140.7z"/>
		<path fill="#FFFFFF" d="M66.5,153.6c0-0.4-0.1-0.6-0.1-0.8c0-1.3,0-2.7,0-4.3c1.5,0.1,2.9,0.1,4.3,0.4c1,0.2,1.6,1.1,1.6,2.2
			c0,1.1-0.5,2-1.7,2.2C69.3,153.5,67.9,153.5,66.5,153.6z"/>
		<path fill="#FFFFFF" d="M66.5,146.7c0-1.5,0-2.8,0-4.1c1.2,0,2.4-0.1,3.6,0c1.1,0.1,1.6,0.9,1.6,1.9c0,1-0.5,1.8-1.5,2
			C68.9,146.7,67.7,146.6,66.5,146.7z"/>
	</g>
</g>
</svg>
