<?xml version="1.0" encoding="utf-8"?>
<!-- Generator: Adobe Illustrator 18.0.0, SVG Export Plug-In . SVG Version: 6.00 Build 0)  -->
<!DOCTYPE svg PUBLIC "-//W3C//DTD SVG 1.1//EN" "http://www.w3.org/Graphics/SVG/1.1/DTD/svg11.dtd">
<svg version="1.1" id="Layer_1" xmlns="http://www.w3.org/2000/svg" xmlns:xlink="http://www.w3.org/1999/xlink" x="0px" y="0px"
	 viewBox="0 0 437 116.8" enable-background="new 0 0 437 116.8" xml:space="preserve">
<g id="mO9H1t.tif">
	<g>
		<g>
			<path fill="#20BFDC" d="M69.9,27.5c0,10.3,0.2,20.4-0.1,30.4c-0.1,4.2-0.8,8.5-2.1,12.5C64.3,81,55.5,86.5,43.2,86.4
				c-11.1-0.2-19.5-6.2-22.9-16.5c-0.7-2.3-1.7-4.7-1.7-7c-0.2-11.7-0.1-23.4-0.1-35.5c3.8,0,7.3,0,11.6,0c0,3.3,0,6.5,0,9.7
				c0,7.1-0.1,14.2,0.1,21.3c0.1,2.8,0.5,5.7,1.3,8.3c2.1,6.4,6.2,8.8,12.7,9.1c6,0.2,11.2-4.7,12.5-9.7c0.9-3.3,1.3-6.8,1.4-10.1
				c0.2-9.3,0.1-18.6,0.1-28.4C62.1,27.5,65.6,27.5,69.9,27.5z"/>
			<path fill="#20BFDC" d="M228.2,67.2c0,6.3,0,12.1,0,18.4c-4,0-7.5,0-11.4,0c0-19.3,0-38.6,0-58.4c9,0,17.9-0.6,26.7,0.2
				c9.4,0.8,16.5,9.9,16.6,19.5c0.1,9.7-6.2,17.4-16,19.1C239.2,66.8,234.2,66.8,228.2,67.2z M228,56c4.7,0,9.1,0.2,13.5-0.1
				c3.9-0.2,6.3-3.4,6.6-8.1c0.3-5.2-1.9-9.6-5.8-9.9c-4.7-0.4-9.5-0.9-14.2,0.4C228,44.3,228,49.9,228,56z"/>
			<path fill="#20BFDC" d="M338.3,68.1c-10.9,0-21.6,0-32.5,0c0.2,5.1,2.9,8,6.8,9.4c5.5,1.9,10.3,0.2,14.3-4.7
				c2.9,0.7,5.7,1.4,8.6,2c-3,9.4-14.8,14.2-26,11.1c-11.3-3.1-18.1-14.4-16-25.7c2.8-14.6,15.4-19.8,25.8-18.4
				C334,43.8,340.8,56.6,338.3,68.1z M326.8,60.5c-1.5-7.3-5.7-10.8-11.6-10.4c-5.4,0.4-9.2,4.6-9.3,10.4
				C312.8,60.5,319.6,60.5,326.8,60.5z"/>
			<path fill="#20BFDC" d="M208,85.8c-6.3,1.3-10.8,1-12.7-5.6c-5.1,4.5-10.5,6.8-17,6.3c-6.3-0.5-12-5.1-13-10.8
				c-1.1-6.6,2.1-12.5,8.5-15.1c4.6-1.8,9.3-2.7,14.2-1.5c1.5,0.4,3.1,0.4,4.6,0.6c1-6.2-1.1-9.4-6.7-9.6c-3.1-0.1-6.4,0.8-9.5,1.5
				c-1.7,0.4-3.3,1.5-5.5,2.6c-1.2-2.1-2.4-4.1-3.7-6.5c9.2-6,18.4-8,28.4-4c6.2,2.5,9.2,7.7,9.6,14.3c0.2,3.4,0,6.9,0.1,10.3
				c0.1,2.9-0.1,5.7,1.9,8.6C208.7,78.9,207.8,82.5,208,85.8z M193.6,66.7c-4.6-1.1-9.3-1.9-14,0.1c-2.3,0.9-3.4,2.7-3.4,5.2
				c0,2.5,0.9,4.5,3.1,5.4c3.7,1.5,7.6,1.2,11-1C193.5,74.3,195.3,71.6,193.6,66.7z"/>
			<path fill="#20BFDC" d="M342.4,79.8c1.2-2.2,2.3-4.4,3.6-6.7c7.6,3.3,14.6,8.7,22.2,2.5c0.2-3.6-1.6-4.7-3.8-5.5
				c-4-1.3-8-2.7-12.1-3.9c-4.9-1.4-8.4-4-8.9-9.4c-0.5-5.1,3-10.9,8.1-13.1c9.2-3.9,17.6-2.2,26.2,3.8c-1.6,2.5-2.9,4.5-4.1,6.5
				c-15.8-5.4-16.7-5.3-19.4,1.2c1.5,3.5,5.1,3.4,8,4.5c3.4,1.3,7,2.1,10.3,3.5c4.1,1.8,6.9,4.7,6.9,9.7c0,5.2-2.2,8.9-6.7,11.4
				c-6.3,3.4-12.9,2.9-19.5,1.5C349.3,84.8,345.5,83.5,342.4,79.8z"/>
			<path fill="#20BFDC" d="M418.4,47.9c-1.6,2.2-3,4.1-4.4,6.1c-3-1.2-5.5-2.6-8.2-3.2c-2.5-0.6-5.2-0.7-7.7-0.2
				c-1.1,0.2-2.6,2.2-2.7,3.4c-0.1,1.2,1.1,3.1,2.2,3.8c1.6,1.1,3.8,1.4,5.7,2c2.9,0.9,5.9,1.6,8.7,2.7c6.3,2.5,7.5,5,7.8,11.4
				c0.2,4.7-3.3,9.7-8.4,11.4c-6.1,2.1-12.3,1.9-18.5,0.1c-3.7-1.1-7.3-2.4-10-5.9c1.3-2.1,2.5-4.1,3.9-6.3c3,1.4,5.6,3.1,8.4,3.7
				c3.3,0.8,6.7,1,10.1,0.8c1.2-0.1,2.9-2.1,3.2-3.5c0.2-1-1.3-2.8-2.4-3.5c-1.9-1.1-4.1-1.6-6.2-2.3c-2.3-0.8-4.7-1.3-6.9-2.2
				c-4.7-1.8-8.9-4-8.7-10.1c0.1-5.6,3.2-10.3,8.7-12.7C401.1,39.9,410.4,41.4,418.4,47.9z"/>
			<path fill="#20BFDC" d="M108.1,51.6c-2.2-0.3-3.8-0.5-5.6-0.8c0-2.4,0-4.8,0-7.6c1.4-0.3,3.1-0.7,5.5-1.3c0-4.1,0-8.5,0-13.2
				c4,0,7.3,0,11.1,0c0,4.5,0,8.7,0,13.4c3.1,0.2,5.9,0.5,9.1,0.7c0,2.6,0,5.1,0,7.9c-2.8,0.2-5.5,0.4-8.6,0.7c0,7.8,0,15.3,0,23.6
				c3.4,0.3,6.5,0.5,9.9,0.7c0.6,2.4,1.3,4.8,2,7.4c-4.4,2.7-8.9,3.5-13.6,3.2c-6.2-0.4-9.6-3.9-9.7-10
				C108,68.4,108.1,60.3,108.1,51.6z"/>
			<path fill="#20BFDC" d="M90.8,26c0,3.8,0,7.2,0,10.6c0,10.7,0,21.5,0,32.2c0,7.9,0.7,8.4,8.6,7.3c0.5,2.7,1.1,5.3,1.7,8.8
				c-4,0.6-7.3,1.4-10.7,1.5c-7.6,0.2-11.2-3.5-11.3-11c-0.1-8.9,0-17.8,0-26.7c0-7.4,0-14.9,0-22.7C83.1,26,86.5,26,90.8,26z"/>
			<path fill="#20BFDC" d="M266.5,85.6c0-14.2,0-28.2,0-42.5c3.3,0,6.5,0,10,0c0.3,1.6,0.7,3.5,1.2,5.9c4.1-4,8.1-7.5,14.6-6.8
				c0.2,3.2,0.3,6.3,0.5,9.4c-3.2,0.9-6,1.3-8.6,2.4c-4.1,1.6-6.5,4.3-6.2,9.2c0.4,5.8,0.1,11.7,0.1,17.6c0,1.4-0.2,2.8-0.4,4.7
				C274.1,85.6,270.6,85.6,266.5,85.6z"/>
			<path fill="#20BFDC" d="M147.5,49.3c9.7-7.2,9.7-7.2,15-7c0,3.1,0,6.2,0,9.4c-2.8,0.9-5.8,1.5-8.5,2.7c-3.8,1.6-6,4.3-5.8,8.9
				c0.3,5.6,0.1,11.3,0.1,17c0,1.8-0.2,3.5-0.3,5.6c-3.5,0-6.7,0-10.3,0c0-14.2,0-28.2,0-42.8c2.8,0,5.7,0,9,0
				C147,45,147.2,47.1,147.5,49.3z"/>
		</g>
	</g>
</g>
</svg>
