<svg id="Layer_1" data-name="Layer 1" xmlns="http://www.w3.org/2000/svg" viewBox="0 0 95.63 98.67"><defs><style>.cls-1{fill:#633594;}</style></defs><title>sponsorship_doc_tracks</title><path class="cls-1" d="M13.84,40.13L58.54,84.82l23.37-24-44.4-44.4ZM40.5,45.3l-0.09-7.15a0.84,0.84,0,0,1,1.48-.75l5.73,4.28a3.75,3.75,0,0,0,3.07.49l6.77-2.3A0.84,0.84,0,0,1,58.63,41l-2.3,6.77a3.75,3.75,0,0,0,.49,3.07l4.28,5.73a0.84,0.84,0,0,1-.75,1.48L53.2,58a3.75,3.75,0,0,0-2.77,1.41l-4.13,5.84a1.09,1.09,0,0,1-.83.55h-0.1A1,1,0,0,1,44.66,65l-2.12-6.83a3.75,3.75,0,0,0-2.2-2.2l-6.83-2.12a0.84,0.84,0,0,1-.26-1.64l5.84-4.13A3.75,3.75,0,0,0,40.5,45.3Z"/><path class="cls-1" d="M91,65.74a9,9,0,0,1,1.45-4.41,2.18,2.18,0,0,0-.24-2.67L39.87,6.33a2.19,2.19,0,0,0-2.67-.25A8.93,8.93,0,0,1,32.83,7.5a8.9,8.9,0,0,1-4.33-1.4,2.08,2.08,0,0,0-1.16-.34,2.15,2.15,0,0,0-1.52.6L3.55,28.62A2.19,2.19,0,0,0,3.3,31.3a8.91,8.91,0,0,1,1.41,4.35A8.93,8.93,0,0,1,3.28,40a2.19,2.19,0,0,0,.25,2.67L55.81,95a2.19,2.19,0,0,0,2.68.25,8.92,8.92,0,0,1,4.35-1.41,8.91,8.91,0,0,1,4.35,1.41A2.2,2.2,0,0,0,69.86,95L92.11,72.72A2.21,2.21,0,0,0,92.37,70,8.86,8.86,0,0,1,91,65.74Zm-6.26-4L59.51,87.66a1.34,1.34,0,0,1-.95.4h0a1.34,1.34,0,0,1-.94-0.39L11,41.07a1.34,1.34,0,0,1,0-1.89L36.57,13.63a1.34,1.34,0,0,1,1.89,0L84.73,59.9A1.34,1.34,0,0,1,84.74,61.78Z"/></svg>