<svg id="Layer_1" data-name="Layer 1" xmlns="http://www.w3.org/2000/svg" viewBox="0 0 90 95.65"><defs><style>.cls-1{fill:#dcc225;}</style></defs><title>sponsorship_doc_tracks</title><path class="cls-1" d="M38.34,37.77a1.75,1.75,0,0,0,1.37-2.85A13.8,13.8,0,0,1,39.47,18a1.75,1.75,0,0,0-2.81-2.11A17.16,17.16,0,0,0,33.2,26.32,17.36,17.36,0,0,0,37,37.11,1.75,1.75,0,0,0,38.34,37.77Z"/><path class="cls-1" d="M28.58,41.5a1.75,1.75,0,1,0,2.79-2.12,21.59,21.59,0,0,1-.12-25.95,1.75,1.75,0,0,0-2.81-2.1A25.09,25.09,0,0,0,28.58,41.5Z"/><path class="cls-1" d="M18.22,26.32A29.08,29.08,0,0,1,24.27,8.47a1.75,1.75,0,0,0-2.78-2.14,32.88,32.88,0,0,0-.67,39.08,1.75,1.75,0,0,0,2.86-2A29.15,29.15,0,0,1,18.22,26.32Z"/><path class="cls-1" d="M61.28,37.38a1.75,1.75,0,0,0,2.47-.28,17.36,17.36,0,0,0,3.77-10.78,17.16,17.16,0,0,0-3.46-10.38A1.75,1.75,0,1,0,61.24,18,13.8,13.8,0,0,1,61,34.92,1.75,1.75,0,0,0,61.28,37.38Z"/><path class="cls-1" d="M69.68,41.83a1.75,1.75,0,0,0,2.46-.33,25.09,25.09,0,0,0,.14-30.17,1.75,1.75,0,0,0-2.81,2.1,21.59,21.59,0,0,1-.12,25.95A1.75,1.75,0,0,0,69.68,41.83Z"/><path class="cls-1" d="M84.21,15.59a32.74,32.74,0,0,0-5-9.25,1.75,1.75,0,1,0-2.78,2.14,29.37,29.37,0,0,1,.6,34.9,1.75,1.75,0,1,0,2.86,2A32.93,32.93,0,0,0,84.21,15.59Z"/><path class="cls-1" d="M53.13,34.72s0-.05,0-0.08a9,9,0,1,0-7.32,0s0,0.05,0,.08L24.69,90.9a3.51,3.51,0,1,0,6.57,2.47L34,86H64.9l2.78,7.39a3.51,3.51,0,1,0,6.57-2.47Zm-10,27h12.6l2,5.37H41.15Zm2.64-7,3.66-9.75,3.66,9.75H45.81ZM36.68,79l1.84-4.9H60.42L62.26,79H36.68Z"/></svg>