<svg id="Layer_1" data-name="Layer 1" xmlns="http://www.w3.org/2000/svg" viewBox="0 0 106.46 84.73"><defs><style>.cls-1{fill:#7eab40;}</style></defs><title>sponsorship_doc_tracks</title><path class="cls-1" d="M102.88,30L83.08,72.95l1,5.87a2.43,2.43,0,0,0,2.31,2h5.09a2.5,2.5,0,0,0,2.35-1.95l2.7-14.14c2.12-2.27,4.59-5.64,4.81-5.92a34.64,34.64,0,0,0,5.15-14.33A22.28,22.28,0,0,0,102.88,30Z"/><path class="cls-1" d="M87,15.17A55.93,55.93,0,0,0,62.36,8.81c-11.84-.39-17.7,2-24,5.37l-0.24.14c-0.58.37-2.2,1.65-2.2,1.65A28.88,28.88,0,0,0,32,12.86c-1.09-.51-6.08-2.9-8.69-3a8.45,8.45,0,0,0-3.55.29,1.29,1.29,0,0,0-.29,1.3,25.45,25.45,0,0,0,2.46,6,45.89,45.89,0,0,0,2.75,4.71,24.59,24.59,0,0,0-4.56,4,21.63,21.63,0,0,0-3.76,6.08,29.28,29.28,0,0,1-7.82,1.67A4.6,4.6,0,0,0,6.75,34a1.75,1.75,0,0,0-1.36,1.19s-0.87,6.12,1,11.19,7.09,9.27,16.22,14.91c2.65,1.64,5.15,3.45,7.74,5.23l0.88,12.27a2.17,2.17,0,0,0,2.12,2h6.39a2.5,2.5,0,0,0,2.36-1.94l1-5.37A44.31,44.31,0,0,0,54.7,75.92a78.37,78.37,0,0,0,28.38-3L102.88,30C98.91,22.85,90.7,17.28,87,15.17ZM32.05,32a3.29,3.29,0,1,1-3.55-3.55A3.3,3.3,0,0,1,32.05,32Zm46.11-14.6a1.48,1.48,0,0,1-1.91.87A43,43,0,0,0,62.17,15.8a42.86,42.86,0,0,0-14.7,2.12,1.49,1.49,0,0,1-1-2.8,45.24,45.24,0,0,1,15.75-2.29A45.94,45.94,0,0,1,77.3,15.5,1.49,1.49,0,0,1,78.16,17.41Z"/></svg>