<svg id="Layer_1" data-name="Layer 1" xmlns="http://www.w3.org/2000/svg" viewBox="0 0 89.9 90"><defs><style>.cls-1{fill:#aa2e23;}</style></defs><title>sponsorship_doc_tracks</title><path class="cls-1" d="M28.92,2.64A2.64,2.64,0,0,1,31.55,0H58.06A2.64,2.64,0,0,1,60.7,2.64V26.33A2.64,2.64,0,0,0,63.34,29H87.27A2.64,2.64,0,0,1,89.9,31.6V58.09a2.64,2.64,0,0,1-2.64,2.64H63.38a2.64,2.64,0,0,0-2.64,2.64v24A2.64,2.64,0,0,1,58.11,90H31.55a2.64,2.64,0,0,1-2.64-2.64V63.5a2.64,2.64,0,0,0-2.64-2.64H2.64A2.64,2.64,0,0,1,0,58.23V31.65A2.64,2.64,0,0,1,2.64,29H26.28a2.64,2.64,0,0,0,2.64-2.64V2.64Z"/></svg>