<svg id="Layer_1" data-name="Layer 1" xmlns="http://www.w3.org/2000/svg" viewBox="0 0 90 90"><defs><style>.cls-1{fill:#c5842a;}</style></defs><title>sponsorship_doc_tracks</title><path class="cls-1" d="M15.77,0.3a1.79,1.79,0,0,0-.94,3L25.68,14.17c0.8,0.8.24,2.66-1.23,4.14l-6.13,6.13c-1.48,1.48-3.34,2-4.14,1.23L3.33,14.83a1.79,1.79,0,0,0-3,.94A19.14,19.14,0,0,0,23.09,37.89a5.17,5.17,0,0,1,4.76,1.46l0,0,49.1,49A8.13,8.13,0,0,0,88.37,77l-49-49.1,0,0a5.11,5.11,0,0,1-1.44-4.74A19.16,19.16,0,0,0,15.77.3Zm69,84.51a4.66,4.66,0,1,1,0-6.58A4.66,4.66,0,0,1,84.81,84.81Z"/></svg>