<svg id="Layer_1" data-name="Layer 1" xmlns="http://www.w3.org/2000/svg" viewBox="0 0 90 95.65"><defs><style>.cls-1{fill:#26429a;}</style></defs><title>sponsorship_doc_tracks</title><path class="cls-1" d="M11.73,62.8a31.25,31.25,0,1,0,15-26.71v-4.3c0-1,0-2.55,0-3.52,0,0,.28-15.4,16.21-15.25S59.32,28.27,59.32,28.27A1.82,1.82,0,0,0,61.12,30h5.3a1.79,1.79,0,0,0,1.78-1.76S68.48,4.06,43.14,4.06s-25.05,24-25.05,24c0,1,0,2.55,0,3.52V43.87A31.12,31.12,0,0,0,11.73,62.8ZM27.91,77.88A21.32,21.32,0,1,1,43,84.13,21.18,21.18,0,0,1,27.91,77.88Z"/><path class="cls-1" d="M43,44.11A18.69,18.69,0,1,1,24.3,62.8,18.71,18.71,0,0,1,43,44.11Z"/></svg>