<?xml version="1.0" encoding="utf-8"?>
<!-- Generator: Adobe Illustrator 18.0.0, SVG Export Plug-In . SVG Version: 6.00 Build 0)  -->
<!DOCTYPE svg PUBLIC "-//W3C//DTD SVG 1.1//EN" "http://www.w3.org/Graphics/SVG/1.1/DTD/svg11.dtd">
<svg version="1.1" xmlns="http://www.w3.org/2000/svg" xmlns:xlink="http://www.w3.org/1999/xlink" x="0px" y="0px"
	 viewBox="0 0 4000 6000" enable-background="new 0 0 4000 6000" xml:space="preserve">
<g id="Layer_1">
	<rect x="350" y="4600" fill="#C9CACC" width="100" height="700"/>
	<rect x="3550" y="4600" fill="#C9CACC" width="100" height="700"/>
	<polygon fill="#C9CACC" points="350,4450 400,4550 1050,4150 1000,4050 	"/>
	<polygon fill="#C9CACC" points="3600,4550 3650,4450 3000,4050 2950,4150 	"/>
	<circle fill="#939598" cx="3000" cy="4100" r="200"/>
	<circle fill="#939598" cx="1000" cy="4100" r="200"/>
	<rect x="1200" y="5200" fill="#AA957D" width="1600" height="200"/>
	<polygon fill="#ECD7AE" points="1000,5200 1200,5200 2800,5200 3000,5200 3000,3100 2000,3000 1000,3100 	"/>
	<path fill="none" stroke="#000000" stroke-miterlimit="10" d="M800,2900"/>
	<path fill="none" stroke="#000000" stroke-miterlimit="10" d="M1050,2900"/>
	<path fill="none" stroke="#000000" stroke-miterlimit="10" d="M2950,2900"/>
	<path fill="none" stroke="#000000" stroke-miterlimit="10" d="M3200,2900"/>
	<polygon fill="#A2957A" points="1300,4400 1400,4300 1400,3300 1300,3300 	"/>
	<polygon fill="#CAB997" points="1300,4400 1400,4300 2600,4300 2700,4400 	"/>
	<polygon fill="#FFE8BC" points="2700,4400 2600,4300 2600,3300 2700,3300 	"/>
	<polyline fill="#48484A" points="2600,4300 2600,3250 2000,3200 1400,3250 1400,4300 	"/>
	<polygon fill="#D1BF9C" points="2800,4550 2800,4750 2300,4750 2300,4700 1800,4700 1800,4600 2300,4600 2300,4550 	"/>
	<circle fill="#939598" cx="400" cy="4500" r="150"/>
	<circle fill="#939598" cx="3600" cy="4500" r="150"/>
	<polygon fill="#636466" points="700,5400 600,5300 200,5300 100,5400 	"/>
	<polygon fill="#636466" points="3300,5400 3400,5300 3800,5300 3900,5400 	"/>
</g>
<g id="Layer_2">
	<rect x="1400" y="3200" fill="none" stroke="#000000" stroke-miterlimit="10" width="1200" height="1100"/>
	<polygon fill="#FFFFFF" points="1925,3200 1925,3600 1775,3600 1775,3750 2075,3750 2075,3200 	"/>
	<rect x="1600" y="3225" fill="#FFFFFF" width="150" height="175"/>
	<rect x="2250" y="3225" fill="#FFFFFF" width="150" height="175"/>
	<rect x="1525" y="3850" fill="#FFFFFF" width="150" height="150"/>
	<rect x="1675" y="4000" fill="#FFFFFF" width="650" height="150"/>
	<rect x="2325" y="3850" fill="#FFFFFF" width="150" height="150"/>
</g>
<g id="Layer_3">
	<polygon fill="#0C86C8" points="2000,2400 2000,1900 1300,2200 	"/>
	<polygon fill="#00568F" points="2000,2400 2000,1900 2700,2200 	"/>
	<g id="XMLID_4_">
		<g>
			<polygon fill="#8CC9EE" points="2000,2400 1050,2795.8 1300,2200 			"/>
		</g>
		<g>
		</g>
	</g>
	<g id="XMLID_3_">
		<g>
			<polygon fill="#1C498B" points="2700,2200 2950,2795.8 2000,2400 			"/>
		</g>
		<g>
		</g>
	</g>
	<polygon fill="#0F86C8" points="800,3400 2000,3200 2000,2400 800,2900 	"/>
	<polygon fill="#00568F" points="3200,3400 3200,2900 2000,2400 2000,3200 	"/>
	<polygon fill="#8DD2F4" points="2000,1900 2000,500 1600,700 1800,1985.7 	"/>
	<polygon fill="#0F86C8" points="2000,1900 2000,500 2400,700 2200,1985.7 	"/>
</g>
<g id="Layer_4">
	<polygon fill-opacity="0.8" points="1000,3366.7 2000,3200 3000,3366.7 2300,3600 	"/>
</g>
</svg>
