<svg id="Layer_1" data-name="Layer 1" xmlns="http://www.w3.org/2000/svg" xmlns:xlink="http://www.w3.org/1999/xlink" viewBox="0 0 449.81 509.53"><defs><style>.cls-1{fill:none;}.cls-2{fill:#0a304f;}.cls-3{fill:#fff;}.cls-4{clip-path:url(#clip-path);}</style><clipPath id="clip-path" transform="translate(-75.09 -71.29)"><rect class="cls-1" width="600" height="800"/></clipPath></defs><title>logo_hexagon</title><path class="cls-2" d="M493.31,199.9L313.64,95.63a26.31,26.31,0,0,0-26.24-.06L107.27,199A26.31,26.31,0,0,0,94.1,221.72L93.63,429.45a26.31,26.31,0,0,0,13.07,22.75L286.36,556.48a26.31,26.31,0,0,0,26.24.06L492.73,453.08a26.31,26.31,0,0,0,13.17-22.69l0.47-207.73A26.31,26.31,0,0,0,493.31,199.9Z" transform="translate(-75.09 -71.29)"/><path class="cls-2" d="M510,188.16L315.57,75.34a30,30,0,0,0-30-.07L90.66,187.21a30,30,0,0,0-15.06,26L75.09,437.92a30,30,0,0,0,14.95,26L284.43,576.76a30,30,0,0,0,30,.07l194.9-111.94a30,30,0,0,0,15.06-26l0.51-224.75A30,30,0,0,0,510,188.16Zm-1.05,242.23a29.32,29.32,0,0,1-14.68,25.29L314.09,559.14a29.32,29.32,0,0,1-29.24-.07L105.19,454.8a29.32,29.32,0,0,1-14.56-25.35l0.47-207.73a29.32,29.32,0,0,1,14.68-25.29L285.91,93a29.32,29.32,0,0,1,29.24.07L494.81,197.3a29.32,29.32,0,0,1,14.56,25.35Z" transform="translate(-75.09 -71.29)"/><path class="cls-3" d="M318.43,393.36h23.65v7.86H318.81v-3.15h-27v-2.12l26.66-.33v-2.26Zm-3-.7-26.66.33v8.09h27v3.15h29.28V390.36H315.43v2.3Z" transform="translate(-75.09 -71.29)"/><path class="cls-3" d="M319.53,355.25h5.33v6h-5.33v-6Zm-3,13.94h-31.3v-4.92h31.3v4.92ZM276.9,355.25h5.33v6H276.9v-6Zm39.63,6h-31.3v-9H273.9v12h8.33v7.93h37.3v-7.93h8.33v-12H316.53v9Z" transform="translate(-75.09 -71.29)"/><polygon class="cls-2" points="212.39 81.71 60.91 165.22 74.5 349.73 220.16 450.71 365.82 361.38 344.45 155.51 212.39 81.71"/><path class="cls-3" d="M319.74,411.27H347v9h-26.8v-3.63H289.05v-2.44l30.69-.38v-2.6Zm-3.45-.81-30.69.38v9.31h31.13v3.63h33.71v-16H316.29v2.65Z" transform="translate(-75.09 -71.29)"/><path class="cls-3" d="M317.56,383.44h-36v-5.67h36v5.67Zm-39.49-9.12h-6.14V367.4h6.14v6.92Zm43-6.92h6.13v6.92H321v-6.92Zm-39.49-3.46h-13v13.83h9.59v9.13h43v-9.12h9.59V363.94h-13v10.38h-36V363.94Z" transform="translate(-75.09 -71.29)"/><polygon class="cls-3" points="122.8 343.65 122.81 343.65 122.8 343.65 122.8 343.65"/><g class="cls-4"><path class="cls-3" d="M403.83,457.06h6L412,459.4H385.19l1.83-2.34h16.81Zm-1.73-42.12h0Zm-10.92-8.46a7.43,7.43,0,1,1,7.43,7.43,7.43,7.43,0,0,1-7.43-7.43m-28.62-14.38V371.55a10.31,10.31,0,0,1,0,20.54m-60.79-66.93V280.85l68.81,28.32v27.59Zm57.33,122.64H239.39V338.3l18.43-3v63.51h83V335.24l18.32,3.09V447.81ZM346.79,459.4H252.44v-8.14h94.35v8.14ZM227.32,336.77V309.19l71-28.26v44.23Zm30.2-69.24,37.38,11L243.31,299.1Zm40.79-17.95V276l-36.64-10.82Zm-21-75.35,21-10.5v82.1l-9.22,3.92Zm-0.23,162.84v-4.95l5.42-.89v5.83h-5.42Zm39.85,0v-5.86l5.42,0.91v4.94h-5.42Zm-13.71-8.17,1,0.17-0.4.6a1.7,1.7,0,0,1-.63-0.77m3.3,33.54v-1.72s0-8.09.07-16.2c0-4.06,0-8.12,0-11.17,0-1.77,0-3,0-3.89l6.9,1.16v9.89h12.33v-7.82l11.52,1.94v60.67h-76V334.72l12.34-2v7.84H286v-9.85l7.56-1.24v19.77h-9.64v13.24h22.65Zm-3.41-33.56c0.08,2.95,0,18.66,0,30.1H287.33v-6.33H297V328.88l3.07-.5Zm-1.36-165.1,19.92,10.42-11.9,75.11-8-3.48v-82ZM337.6,265.16L301.77,276V249.61Zm17.54,33.92-49.83-20.51,36.31-11Zm-119.2,92.76a10.3,10.3,0,0,1,0-20v20ZM201.39,413.9a7.43,7.43,0,1,1,7.43-7.43,7.43,7.43,0,0,1-7.43,7.43m-3.5,1h0ZM213,457.06l1.83,2.34H188l2.12-2.34H213Zm172.36-3.46-7.23,9.25h41.67l-8.38-9.25h-7.56V416a10.87,10.87,0,0,0-10-19.31L375,385a13.7,13.7,0,0,0-12.46-16.93V338.92L374,340.85v-34L359.7,301l-15.79-36.82-30.86-13.39,12.42-78.44L300.05,159,273.5,172.28l12.31,78.87-30.54,13-16.58,36.82-14.83,5.9v34l12.08-2v29.41A13.7,13.7,0,0,0,225,385l-18.83,11.68a10.87,10.87,0,0,0-10,19.31V453.6H188.6l-8.38,9.25h41.67l-7.23-9.25H206V416.31a10.82,10.82,0,0,0,6-12.2L230.36,393a13.68,13.68,0,0,0,5.58,2.36v55.89h13v11.59H350.24V451.26h12.32V395.55a13.67,13.67,0,0,0,7.07-2.54L388,404.12a10.83,10.83,0,0,0,6,12.2V453.6h-8.65Z" transform="translate(-75.09 -71.29)"/></g><polygon class="cls-3" points="327.01 343.65 327.01 343.65 327.01 343.65 327.01 343.65"/></svg>