<?xml version="1.0" encoding="utf-8"?>
<!-- Generator: Adobe Illustrator 18.0.0, SVG Export Plug-In . SVG Version: 6.00 Build 0)  -->
<!DOCTYPE svg PUBLIC "-//W3C//DTD SVG 1.1//EN" "http://www.w3.org/Graphics/SVG/1.1/DTD/svg11.dtd">
<svg version="1.1" id="Layer_1" xmlns="http://www.w3.org/2000/svg" xmlns:xlink="http://www.w3.org/1999/xlink" x="0px" y="0px"
	 viewBox="0 0 3000 3000" enable-background="new 0 0 3000 3000" xml:space="preserve">
<path fill="none" stroke="#000000" stroke-miterlimit="10" d="M0,3000"/>
<g id="XMLID_5_">
	<g>
		<polygon fill="#8BCAEF" points="1500,1670 550,2065.8 809,1470 		"/>
	</g>
	<g>
	</g>
</g>
<g id="XMLID_3_">
	<g>
		<polygon fill="#0B142B" points="2200,1470 2450,2065.8 1500,1670 		"/>
	</g>
	<g>
	</g>
</g>
<polyline fill="#194071" points="1800,270 1645.5,1232.3 1500,1170 1500,170 1800,270 "/>
<polyline fill="#8CD3F5" points="1200,270 1356.4,1232.3 1500,1170 1500,170 1200,270 "/>
<g id="XMLID_1_">
	<g>
		<path fill="#0C86C8" d="M1500,1670v800L300,2670c0,0,0,0,0-500l250-104.2L1500,1670z"/>
	</g>
	<g>
	</g>
</g>
<g id="XMLID_2_">
	<g>
		<polygon fill="#0A304E" points="2700,2170 2700,2670 1500,2470 1500,1670 		"/>
	</g>
	<g>
	</g>
</g>
<g id="XMLID_4_">
	<g>
		<polygon fill="#0A304E" points="2200,1470 1500,1670 1500,1170 		"/>
	</g>
	<g>
	</g>
</g>
<polygon fill="#0986C8" points="1500,1670 1500,1170 809,1470 "/>
</svg>
